<?xml version="1.0" encoding="UTF-8"?>
<svg version="1.1" xmlns="http://www.w3.org/2000/svg" width="1200" height="800">
<path d="M0 0 C396 0 792 0 1200 0 C1200 264 1200 528 1200 800 C804 800 408 800 0 800 C0 536 0 272 0 0 Z " fill="#FEFEFE" transform="translate(0,0)"/>
<path d="M0 0 C0.33 1.65 0.66 3.3 1 5 C-19.44371978 20.28756036 -42.20962493 25.7193931 -66.9375 29.5625 C-68.37508163 29.78886642 -68.37508163 29.78886642 -69.84170532 30.01980591 C-87.18408158 32.7378814 -104.47935427 34.85699922 -122 36 C-122.92844727 36.06864258 -123.85689453 36.13728516 -124.81347656 36.20800781 C-135.90209228 36.97171009 -143.45340164 35.41787451 -152.15234375 28.21875 C-156.68894754 23.98829739 -158.71778404 20.68105159 -159.375 14.4375 C-159 11 -159 11 -157.3671875 8.81640625 C-152.57627619 5.14021193 -145.76040531 6.42624534 -140 7 C-133.96080584 7.83232484 -127.96476807 8.92404604 -121.9609375 9.9765625 C-85.96400486 16.2443443 -45.72475284 15.49400268 -11.40136719 1.87988281 C-7.43753199 0.3337636 -4.25273504 -0.28176827 0 0 Z " fill="#039C91" transform="translate(556,351)"/>
<path d="M0 0 C6.73626445 4.28142542 11.57725463 10.38565741 14 18 C15.45376314 28.08801814 14.31545026 38.40528787 11 48 C10.5978125 49.19109375 10.195625 50.3821875 9.78125 51.609375 C6.43087539 60.96090413 1.0954871 74.03882522 -8 79 C-10.25 78.6875 -10.25 78.6875 -12 78 C-11.50760755 71.22960377 -10.11328884 64.85794117 -8.45996094 58.29321289 C-6.52956756 50.49857307 -5.78896504 42.89750261 -5.6875 34.875 C-5.65849609 34.10285156 -5.62949219 33.33070313 -5.59960938 32.53515625 C-5.54066188 27.21174412 -6.45832301 24.21847241 -10 20 C-12.84083641 18.57958179 -14.85477278 18.68547728 -18 19 C-20.34703904 20.39517743 -20.34703904 20.39517743 -22 23 C-22.64224301 26.78667618 -22.45849304 30.61666906 -22.40039062 34.4453125 C-22.48437864 40.43316372 -22.48437864 40.43316372 -25.3203125 43.55078125 C-28 45 -28 45 -31.4375 45.1875 C-36.21826571 43.59391143 -38.35132085 41.20573015 -41 37 C-43.83448408 30.42915053 -44.16058639 22.43385699 -42.34765625 15.5078125 C-39.19540014 7.68805271 -34.24121719 1.79819678 -26.6875 -2 C-17.25056719 -5.79794704 -8.99343487 -4.53042596 0 0 Z " fill="#049C91" transform="translate(488,393)"/>
<path d="M0 0 C2.97 0 5.94 0 9 0 C9 2.64 9 5.28 9 8 C13.29 8 17.58 8 22 8 C22 9.65 22 11.3 22 13 C20.02 13 18.04 13 16 13 C16.66 13.825 17.32 14.65 18 15.5 C20.30618898 19.50505417 20.41675697 23.48216835 20.4375 28 C20.44716797 28.67611328 20.45683594 29.35222656 20.46679688 30.04882812 C20.33794659 37.86321918 17.37383992 43.49821151 12 49 C8.32339766 51.07398081 5.1840444 51.51233197 1 51 C-4.7450915 47.9515841 -8.78189602 43.90024756 -11.3125 37.875 C-12.94630501 28.66628087 -12.65388276 21.22739988 -8 13 C-9.65 13 -11.3 13 -13 13 C-13 11.35 -13 9.7 -13 8 C-8.71 8 -4.42 8 0 8 C0 5.36 0 2.72 0 0 Z " fill="#292526" transform="translate(576,368)"/>
<path d="M0 0 C2.97 0 5.94 0 9 0 C9 6.93 9 13.86 9 21 C11.64 21 14.28 21 17 21 C17 22.65 17 24.3 17 26 C14.36 26 11.72 26 9 26 C9 39.2 9 52.4 9 66 C6.03 66 3.06 66 0 66 C0 59.07 0 52.14 0 45 C-0.99 45.33 -1.98 45.66 -3 46 C-5.55075155 46.1203873 -8.0734369 46.18803926 -10.625 46.203125 C-11.7399585 46.21167511 -11.7399585 46.21167511 -12.87744141 46.22039795 C-14.44757671 46.22983425 -16.0177317 46.23637649 -17.58789062 46.24023438 C-19.99123423 46.24996451 -22.39373114 46.28100917 -24.796875 46.3125 C-26.32291159 46.31902803 -27.84895429 46.32427929 -29.375 46.328125 C-30.09381348 46.3404718 -30.81262695 46.3528186 -31.55322266 46.36553955 C-36.54117254 46.34322378 -36.54117254 46.34322378 -38.6920929 44.73423767 C-40.29741053 42.60564436 -40.36497981 41.53947905 -40.34057617 38.89575195 C-40.34034958 38.07512772 -40.34012299 37.25450348 -40.33988953 36.40901184 C-40.32440567 35.52767075 -40.30892181 34.64632965 -40.29296875 33.73828125 C-40.28872391 32.83248825 -40.28447906 31.92669525 -40.28010559 30.99345398 C-40.26330848 28.09950067 -40.2256545 25.20624294 -40.1875 22.3125 C-40.17245449 20.35092151 -40.15876585 18.38933211 -40.14648438 16.42773438 C-40.11340157 11.61822144 -40.06161222 6.80922867 -40 2 C-37.03 2 -34.06 2 -31 2 C-30.67 14.54 -30.34 27.08 -30 40 C-23.4103125 40.0309375 -23.4103125 40.0309375 -16.6875 40.0625 C-15.30522217 40.071604 -13.92294434 40.08070801 -12.4987793 40.09008789 C-11.40992432 40.09258545 -10.32106934 40.09508301 -9.19921875 40.09765625 C-7.52605591 40.10551147 -7.52605591 40.10551147 -5.8190918 40.11352539 C-2.91947938 40.12749254 -2.91947938 40.12749254 0 39 C0 26.13 0 13.26 0 0 Z " fill="#282425" transform="translate(669,368)"/>
<path d="M0 0 C9.57 0 19.14 0 29 0 C29.43951647 12.74597755 29.43558365 23.14964814 20.875 33.4375 C14.70772063 39.74678909 7.83239074 43.42397452 -1 44 C-1 42.02 -1 40.04 -1 38 C-0.33613281 37.70867187 0.32773437 37.41734375 1.01171875 37.1171875 C9.03576986 33.39215355 12.63527706 30.41180736 16 22 C10.72 22 5.44 22 0 22 C0 20.02 0 18.04 0 16 C5.94 15.67 11.88 15.34 18 15 C18.33 12.03 18.66 9.06 19 6 C12.73 6 6.46 6 0 6 C0 4.02 0 2.04 0 0 Z " fill="#282425" transform="translate(693,371)"/>
<path d="M0 0 C2.97 0 5.94 0 9 0 C9 6.93 9 13.86 9 21 C11.64 21 14.28 21 17 21 C17 22.98 17 24.96 17 27 C14.36 27 11.72 27 9 27 C9 39.87 9 52.74 9 66 C6.03 66 3.06 66 0 66 C0 44.22 0 22.44 0 0 Z " fill="#231F20" transform="translate(732,367)"/>
<path d="M0 0 C13.86 0 27.72 0 42 0 C42 1.65 42 3.3 42 5 C31.11 5 20.22 5 9 5 C9 12.92 9 20.84 9 29 C19.89 29 30.78 29 42 29 C42 30.65 42 32.3 42 34 C36.50076251 34.07411371 31.00181521 34.12858464 25.50219727 34.16479492 C23.63105201 34.17988873 21.75994217 34.20036589 19.88891602 34.22631836 C17.20059474 34.26267593 14.51274087 34.27972015 11.82421875 34.29296875 C10.56782845 34.31619453 10.56782845 34.31619453 9.28605652 34.33988953 C3.4453441 34.34158501 3.4453441 34.34158501 1.27624512 32.67785645 C-0.805622 29.94086329 -0.33423195 27.29560896 -0.29296875 23.92578125 C-0.28547607 22.67450439 -0.2779834 21.42322754 -0.27026367 20.1340332 C-0.24295166 18.54292725 -0.21563965 16.95182129 -0.1875 15.3125 C-0.125625 10.259375 -0.06375 5.20625 0 0 Z " fill="#231F20" transform="translate(756,371)"/>
<path d="M0 0 C2.64 0 5.28 0 8 0 C8 6.6 8 13.2 8 20 C10.97 20 13.94 20 17 20 C17 21.98 17 23.96 17 26 C14.36 26 11.72 26 9 26 C9 38.87 9 51.74 9 65 C6.03 65 3.06 65 0 65 C0 43.55 0 22.1 0 0 Z " fill="#2C2829" transform="translate(606,369)"/>
<path d="M0 0 C3.91483274 2.60988849 4.85682182 5.61266754 6 10 C6.66856642 14.26609051 6.30864861 17.37083167 4.375 21.3125 C1.6422424 24.40483097 -0.06317532 25.73724492 -4 27 C-8.60361214 27.19520617 -11.99715097 26.61877919 -15.9375 24.1875 C-20.00677895 19.87159809 -20.45322714 16.19158554 -20.30859375 10.40625 C-19.8518954 6.84515903 -18.72391439 5.30485064 -16 3 C-10.82112871 0.05515162 -5.86938661 -0.87585808 0 0 Z " fill="#ED1A54" transform="translate(480,329)"/>
<path d="M0 0 C2.625 0.5 2.625 0.5 4.76171875 3.03515625 C6.88889001 6.99071372 7.19076735 10.06399725 7.0625 14.4375 C7.06958984 15.11490234 7.07667969 15.79230469 7.08398438 16.49023438 C7.02071461 21.56641638 6.02490611 25.11512482 3.625 29.5 C0.4375 30.4375 0.4375 30.4375 -2.375 30.5 C-7.5190718 23.03279901 -8.01352349 17.46134687 -7.375 8.5 C-5.86063536 4.43874939 -4.52236091 0.95207598 0 0 Z " fill="#F9F9F9" transform="translate(580.375,381.5)"/>
<path d="M0 0 C18.15 0 36.3 0 55 0 C55 1.98 55 3.96 55 6 C36.85 6 18.7 6 0 6 C0 4.02 0 2.04 0 0 Z " fill="#302D2E" transform="translate(749,419)"/>
</svg>
