<?xml version="1.0" encoding="UTF-8"?>
<svg version="1.1" xmlns="http://www.w3.org/2000/svg" width="1200" height="800">
<path d="M0 0 C396 0 792 0 1200 0 C1200 264 1200 528 1200 800 C804 800 408 800 0 800 C0 536 0 272 0 0 Z " fill="#FEFEFE" transform="translate(0,0)"/>
<path d="M0 0 C1 1 1 1 1.1875 4.625 C1.1419593 10.29937152 0.27482519 15.84960652 -0.5625 21.44921875 C-0.96130687 24.68596378 -1.03203306 27.7454978 -1 31 C2.66529222 28.85490528 6.32720323 26.70417408 9.98632812 24.54858398 C11.22666586 23.81890753 12.46785182 23.09067064 13.70996094 22.36401367 C20.65570059 18.29924115 27.4605269 14.14116906 33.99169922 9.42382812 C38.73505084 6.06092676 42.15853987 4.58275285 48 5 C48.83891463 7.34896097 49.16073455 8.565842 48.28125 10.94140625 C43.35749356 18.85244174 31.05852418 23.45170817 23.03710938 27.87255859 C16.01897363 31.75675692 9.00633638 35.67400045 2.25 40 C-1 42 -1 42 -3 42 C-3 42.66 -3 43.32 -3 44 C-2.29488281 44.24621094 -1.58976562 44.49242187 -0.86328125 44.74609375 C2.38683911 46.16940703 4.94386679 47.97454745 7.8125 50.0625 C13.41044435 54.05928737 19.20840221 57.46741965 25.25146484 60.74414062 C29.23428465 62.92624311 32.83196046 65.27996405 36.4375 68.0625 C40.32426036 70.87032688 42.99584993 71.79747501 47.78125 71.359375 C48.5134375 71.24078125 49.245625 71.1221875 50 71 C50.7528125 70.90203125 51.505625 70.8040625 52.28125 70.703125 C57.90238674 69.74060159 62.63790288 67.71699825 67 64 C69.78022891 59.91653878 70.34975412 56.89655775 70 52 C66.5265805 49.86251108 64.04287928 49.38975407 60 50 C55.52379879 51.97731323 51.95425337 54.18198281 49.640625 58.58984375 C48.98497298 60.34749551 48.38395102 62.12695337 47.8515625 63.92578125 C47.57054687 64.61027344 47.28953125 65.29476562 47 66 C43.50615721 67.16461426 40.66344611 67.13568319 37 67 C34.52196567 64.52196567 35.81446401 57.88757262 35.8125 54.5625 C35.80025391 53.50611328 35.78800781 52.44972656 35.77539062 51.36132812 C35.76326288 44.80021698 35.96893913 38.29589278 38 32 C38.66 31.34 39.32 30.68 40 30 C42.31 30 44.62 30 47 30 C47 35.61 47 41.22 47 47 C48.175625 46.34 49.35125 45.68 50.5625 45 C57.0702611 42.09733195 64.00971233 42.14640051 71 43 C75.61037545 44.96724006 79.02934929 46.89351226 82 51 C82.99996276 55.36073987 82.86681955 59.18440706 80.92578125 63.25 C74.50898436 72.53238016 65.42195104 75.03892458 55 78 C50.5599584 79.2550568 50.5599584 79.2550568 47 82 C40.85250061 81.89249206 35.60563676 78.50240057 30.3125 75.6875 C28.80393433 74.89412231 28.80393433 74.89412231 27.26489258 74.0847168 C18.08455471 69.18482621 9.29225513 63.74784036 0.60620117 58.0246582 C-1.03017849 56.94157178 -1.03017849 56.94157178 -3 56 C-2.67 68.87 -2.34 81.74 -2 95 C-4.31 94.67 -6.62 94.34 -9 94 C-9.19335938 93.39671875 -9.38671875 92.7934375 -9.5859375 92.171875 C-9.84632813 91.37265625 -10.10671875 90.5734375 -10.375 89.75 C-10.63023437 88.96109375 -10.88546875 88.1721875 -11.1484375 87.359375 C-11.91441013 85.03438017 -11.91441013 85.03438017 -13.03125 83.1640625 C-14.40924001 80.08581063 -14.73882996 76.94273191 -15.125 73.625 C-15.20991699 72.92761719 -15.29483398 72.23023438 -15.38232422 71.51171875 C-16.15176585 64.66260452 -16.19377746 57.88986528 -16 51 C-17.52418091 51.81289649 -19.048317 52.62587711 -20.57226562 53.43920898 C-21.91267552 54.15364483 -23.25383751 54.8666712 -24.59570312 55.57836914 C-28.11242536 57.44611573 -31.61419207 59.33410412 -35.08984375 61.27734375 C-36.07392212 61.82068359 -36.07392212 61.82068359 -37.07788086 62.375 C-38.32704092 63.06550484 -39.57166717 63.76429908 -40.81079102 64.47265625 C-44.86066302 66.69430032 -48.39463393 67.6895893 -53 68 C-53.66 67.67 -54.32 67.34 -55 67 C-53.55611253 63.29611475 -52.03821068 62.20358292 -48.5 60.5 C-42.8644686 57.5920658 -37.63843333 54.22145999 -32.375 50.6875 C-31.56869141 50.14738281 -30.76238281 49.60726562 -29.93164062 49.05078125 C-26.29550557 46.73936421 -26.29550557 46.73936421 -23 44 C-23.70084717 43.63237549 -24.40169434 43.26475098 -25.1237793 42.88598633 C-28.31677148 41.20428213 -31.50211526 39.50856643 -34.6875 37.8125 C-35.79029297 37.23435547 -36.89308594 36.65621094 -38.02929688 36.06054688 C-48.09911282 30.67578125 -48.09911282 30.67578125 -52 26 C-50.63016497 22.83884224 -50.0109362 22.0072908 -47 20 C-43.0811073 20.34871675 -40.06508581 21.82157246 -36.62109375 23.65234375 C-35.61755859 24.18150391 -34.61402344 24.71066406 -33.58007812 25.25585938 C-32.54302734 25.81080078 -31.50597656 26.36574219 -30.4375 26.9375 C-28.37376126 28.03006757 -26.30996162 29.12252011 -24.24609375 30.21484375 C-23.33529053 30.70073975 -22.4244873 31.18663574 -21.48608398 31.68725586 C-19.33761407 32.82172731 -17.17823703 33.92408003 -15 35 C-15.05800781 34.42636719 -15.11601562 33.85273438 -15.17578125 33.26171875 C-15.71113621 23.18174959 -13.38427783 9.76756137 -8 1 C-5.05549278 0.01849759 -3.06481021 -0.1613058 0 0 Z " fill="#FCB11D" transform="translate(357,352)"/>
<path d="M0 0 C6.043125 -0.061875 12.08625 -0.12375 18.3125 -0.1875 C20.19622314 -0.21481201 22.07994629 -0.24212402 24.02075195 -0.27026367 C45.03456523 -0.44939791 45.03456523 -0.44939791 52.625 5.5625 C56.58539257 9.62711343 56.33876237 12.73866113 56.28125 18.23828125 C55.75060627 23.44890788 53.06986997 26.07602139 49.25 29.375 C48.5075 29.91125 47.765 30.4475 47 31 C47.53109375 31.29132813 48.0621875 31.58265625 48.609375 31.8828125 C53.31844902 34.61545034 56.68408484 36.88568736 59 42 C59.78775331 47.03013309 59.60328958 50.79342083 57.3125 55.375 C51.80932631 61.62184581 46.21774947 64.55492699 37.82696533 65.1555481 C31.67593881 65.37404434 25.52804367 65.27164207 19.375 65.1875 C12.98125 65.125625 6.5875 65.06375 0 65 C0 43.55 0 22.1 0 0 Z " fill="#7C7267" transform="translate(542,365)"/>
<path d="M0 0 C3.63 0 7.26 0 11 0 C11.33 9.24 11.66 18.48 12 28 C14.02125 26.246875 16.0425 24.49375 18.125 22.6875 C24.73377281 16.99168845 31.51034353 11.53801977 38.44873047 6.24926758 C40.02561466 5.01826738 40.02561466 5.01826738 41.46142578 3.5847168 C44.80958159 0.40031113 47.22496137 -0.55304169 51.859375 -0.43945312 C52.52453125 -0.39755859 53.1896875 -0.35566406 53.875 -0.3125 C54.56335938 -0.28994141 55.25171875 -0.26738281 55.9609375 -0.24414062 C57.64158245 -0.1857849 59.32109153 -0.09612071 61 0 C57.28778977 3.85202983 53.38014322 7.24468441 49.1875 10.5625 C48.54675537 11.07264648 47.90601074 11.58279297 47.24584961 12.10839844 C39.94409308 17.88906604 32.48153213 23.4552114 25 29 C31.47661368 35.54527036 38.27646068 41.64924933 45.4375 47.4375 C52.24443027 52.94694996 58.86506932 58.74398517 65 65 C51.03660824 66.22010219 51.03660824 66.22010219 46.4375 63.46484375 C44.46882675 61.40488121 42.74303354 59.2524132 41 57 C39.73823804 55.82131702 38.44587297 54.6745393 37.125 53.5625 C34.04714069 50.91312699 31.013147 48.22288972 28 45.5 C19.71528187 37.99113881 19.71528187 37.99113881 11 31 C11 42.22 11 53.44 11 65 C7.37 65 3.74 65 0 65 C0 43.55 0 22.1 0 0 Z " fill="#7B7167" transform="translate(470,365)"/>
<path d="M0 0 C18.48 0 36.96 0 56 0 C56 6.93 56 13.86 56 21 C57.98 21 59.96 21 62 21 C62 23.31 62 25.62 62 28 C52.1 28 42.2 28 32 28 C32 31.3 32 34.6 32 38 C40.25 38 48.5 38 57 38 C57 46.91 57 55.82 57 65 C54.03 65 51.06 65 48 65 C48 58.4 48 51.8 48 45 C31.83 45 15.66 45 -1 45 C-1 42.69 -1 40.38 -1 38 C7.25 38 15.5 38 24 38 C24 34.7 24 31.4 24 28 C14.1 28 4.2 28 -6 28 C-6 25.69 -6 23.38 -6 21 C11.82 21 29.64 21 48 21 C48 16.38 48 11.76 48 7 C32.16 7 16.32 7 0 7 C0 4.69 0 2.38 0 0 Z " fill="#796F64" transform="translate(625,365)"/>
<path d="M0 0 C12.87 0 25.74 0 39 0 C39 10.89 39 21.78 39 33 C26.13 33 13.26 33 0 33 C0 22.11 0 11.22 0 0 Z " fill="#796F65" transform="translate(696,366)"/>
<path d="M0 0 C16.5 0 33 0 50 0 C50 2.31 50 4.62 50 7 C36.14 7 22.28 7 8 7 C8 14.92 8 22.84 8 31 C21.86 31 35.72 31 50 31 C50 33.31 50 35.62 50 38 C33.5 38 17 38 0 38 C0 25.46 0 12.92 0 0 Z " fill="#7C7167" transform="translate(840,366)"/>
<path d="M0 0 C12.87 0 25.74 0 39 0 C39 14.19 39 28.38 39 43 C36.03 43 33.06 43 30 43 C30 36.73 30 30.46 30 24 C20.43 24 10.86 24 1 24 C1 21.69 1 19.38 1 17 C10.57 17 20.14 17 30 17 C30 14.03 30 11.06 30 8 C29.12674072 8.00523682 28.25348145 8.01047363 27.35375977 8.01586914 C24.12410727 8.03287751 20.89447755 8.04543369 17.66479492 8.05493164 C16.26504772 8.0599708 14.8653058 8.06680216 13.46557617 8.07543945 C11.45754223 8.0875232 9.44947043 8.09269807 7.44140625 8.09765625 C6.23170166 8.10289307 5.02199707 8.10812988 3.77563477 8.11352539 C1 8 1 8 0 7 C0 4.69 0 2.38 0 0 Z " fill="#7F756C" transform="translate(763,366)"/>
<path d="M0 0 C4.33401017 -0.10835025 8.66528673 -0.18750156 13 -0.25 C14.22074219 -0.28351563 15.44148437 -0.31703125 16.69921875 -0.3515625 C23.95956433 -0.43005272 28.89886581 -0.07720025 35 4 C37.48386059 7.72579089 37.3804212 9.58711402 37 14 C35.59538849 17.43349481 34.48830944 18.70635147 31.30224609 20.62231445 C27.67114164 22.13719856 25.20428242 22.34684792 21.2890625 22.29296875 C20.04511719 22.28330078 18.80117188 22.27363281 17.51953125 22.26367188 C16.23433594 22.23853516 14.94914063 22.21339844 13.625 22.1875 C11.66240234 22.16719727 11.66240234 22.16719727 9.66015625 22.14648438 C6.43992699 22.11122639 3.21991029 22.05742244 0 22 C0 14.74 0 7.48 0 0 Z " fill="#FEFEFD" transform="translate(553,400)"/>
<path d="M0 0 C4.37537287 -0.08102542 8.74924085 -0.14052099 13.125 -0.1875 C14.3625 -0.21263672 15.6 -0.23777344 16.875 -0.26367188 C18.07382812 -0.27333984 19.27265625 -0.28300781 20.5078125 -0.29296875 C21.60754395 -0.3086792 22.70727539 -0.32438965 23.84033203 -0.34057617 C28.41890837 0.15294214 31.74776255 1.74776255 35 5 C35.34532068 8.00922309 35.56241657 10.09325299 35 13 C32.82425584 15.69105198 31.08934144 17.45532928 28 19 C25.89471067 19.08543895 23.78668843 19.10714725 21.6796875 19.09765625 C20.42285156 19.09443359 19.16601562 19.09121094 17.87109375 19.08789062 C16.55238281 19.07951172 15.23367188 19.07113281 13.875 19.0625 C12.53515789 19.05748489 11.195314 19.05292201 9.85546875 19.04882812 C6.57029343 19.03701095 3.28514119 19.01907501 0 19 C0 12.73 0 6.46 0 0 Z " fill="#FEFEFE" transform="translate(553,373)"/>
<path d="M0 0 C2.64 0 5.28 0 8 0 C8 5.28 8 10.56 8 16 C10.97 16 13.94 16 17 16 C17 18.31 17 20.62 17 23 C14.03 23 11.06 23 8 23 C8 36.86 8 50.72 8 65 C5.36 65 2.72 65 0 65 C0 43.55 0 22.1 0 0 Z " fill="#776D62" transform="translate(812,365)"/>
<path d="M0 0 C2.97 0 5.94 0 9 0 C9 5.61 9 11.22 9 17 C23.52 17 38.04 17 53 17 C53 19.64 53 22.28 53 25 C35.51 25 18.02 25 0 25 C0 16.75 0 8.5 0 0 Z " fill="#857C72" transform="translate(703,405)"/>
<path d="M0 0 C21.12 0 42.24 0 64 0 C64 2.31 64 4.62 64 7 C42.88 7 21.76 7 0 7 C0 4.69 0 2.38 0 0 Z " fill="#7D7369" transform="translate(833,418)"/>
<path d="M0 0 C7.59 0 15.18 0 23 0 C23 6.27 23 12.54 23 19 C15.41 19 7.82 19 0 19 C0 12.73 0 6.46 0 0 Z " fill="#F8F8F7" transform="translate(704,373)"/>
<path d="M0 0 C2.64 0 5.28 0 8 0 C8 13.86 8 27.72 8 42 C5.36 42 2.72 42 0 42 C0 28.14 0 14.28 0 0 Z " fill="#766B61" transform="translate(747,365)"/>
</svg>
