<?xml version="1.0" encoding="UTF-8"?>
<svg version="1.1" xmlns="http://www.w3.org/2000/svg" width="1200" height="800">
<path d="M0 0 C396 0 792 0 1200 0 C1200 264 1200 528 1200 800 C804 800 408 800 0 800 C0 536 0 272 0 0 Z " fill="#FEFEFE" transform="translate(0,0)"/>
<path d="M0 0 C2.96960725 0.01076654 5.93861332 -0.00000893 8.90820312 -0.01269531 C66.91420948 -0.0545163 66.91420948 -0.0545163 83.06835938 15.77246094 C86.3235359 19.58852942 87.61121034 22.65619859 87.33789062 27.63574219 C86.57119693 32.64031422 84.34841303 36.26835129 81.33789062 40.26074219 C80.73847656 41.06640625 80.1390625 41.87207031 79.52148438 42.70214844 C70.80223097 52.91880493 58.01683378 59.10013244 46.33789062 65.26074219 C44.92010769 62.42517632 45.47531441 60.26987158 45.77539062 57.13574219 C45.87722656 56.04003906 45.9790625 54.94433594 46.08398438 53.81542969 C46.16777344 52.97238281 46.2515625 52.12933594 46.33789062 51.26074219 C42.70789063 51.26074219 39.07789063 51.26074219 35.33789062 51.26074219 C35.33789062 52.91074219 35.33789062 54.56074219 35.33789062 56.26074219 C35.99789063 56.26074219 36.65789062 56.26074219 37.33789062 56.26074219 C37.33789062 58.24074219 37.33789062 60.22074219 37.33789062 62.26074219 C35.40039062 62.82324219 35.40039062 62.82324219 33.33789062 63.26074219 C32.33789062 62.26074219 32.33789062 62.26074219 32.22436523 60.40307617 C32.22960205 59.61231689 32.23483887 58.82155762 32.24023438 58.00683594 C32.24345703 57.15283203 32.24667969 56.29882812 32.25 55.41894531 C32.25837891 54.52111328 32.26675781 53.62328125 32.27539062 52.69824219 C32.27990234 51.79654297 32.28441406 50.89484375 32.2890625 49.96582031 C32.30088838 47.73072905 32.31736842 45.49576782 32.33789062 43.26074219 C33.98789062 42.93074219 35.63789062 42.60074219 37.33789062 42.26074219 C37.33789062 43.58074219 37.33789062 44.90074219 37.33789062 46.26074219 C39.97789062 46.26074219 42.61789062 46.26074219 45.33789062 46.26074219 C45.07395561 42.82843771 45.07395561 42.82843771 44.33789062 39.26074219 C40.7801285 36.88890077 39.05768455 36.96249825 34.83789062 36.94824219 C33.69320313 36.93148437 32.54851562 36.91472656 31.36914062 36.89746094 C28.41764915 37.00862099 28.41764915 37.00862099 26.67333984 38.42993164 C24.8155136 40.97688575 24.94992346 42.78386881 24.93945312 45.91699219 C24.93558594 47.02171875 24.93171875 48.12644531 24.92773438 49.26464844 C24.93933594 50.41835938 24.9509375 51.57207031 24.96289062 52.76074219 C24.94548828 54.49130859 24.94548828 54.49130859 24.92773438 56.25683594 C24.93160156 57.3615625 24.93546875 58.46628906 24.93945312 59.60449219 C24.94283691 60.61705078 24.9462207 61.62960937 24.94970703 62.67285156 C25.13926164 65.27279224 25.13926164 65.27279224 26.63232422 67.07128906 C29.31552445 68.94253892 32.14366812 68.95940044 35.33789062 69.26074219 C33.74640254 72.44371836 30.48280564 72.80860077 27.27539062 73.88574219 C26.52443115 74.14299072 25.77347168 74.40023926 24.99975586 74.6652832 C23.33858074 75.23230524 21.67615433 75.79567063 20.01269531 76.35595703 C17.26455689 77.28554821 14.52386277 78.2351298 11.78320312 79.18652344 C-12.932478 87.69138071 -37.93249305 93.7778565 -63.66210938 98.26074219 C-64.79197266 98.45796875 -65.92183594 98.65519531 -67.0859375 98.85839844 C-96.28603668 103.83232838 -125.33264855 105.53688102 -154.91210938 105.63574219 C-156.06376587 105.64359741 -157.21542236 105.65145264 -158.40197754 105.6595459 C-212.43872315 105.94682156 -212.43872315 105.94682156 -228.66210938 92.26074219 C-232.96267726 87.97911953 -235.34064547 84.87837681 -236.09960938 78.69824219 C-235.92169889 70.58848924 -230.28919924 64.55519811 -224.72460938 59.19824219 C-215.24999759 50.99980261 -204.20564276 45.03654914 -192.66210938 40.26074219 C-192.64792969 40.85242188 -192.63375 41.44410156 -192.61914062 42.05371094 C-192.36682223 46.23401296 -192.15164839 48.62722111 -189.53710938 52.01074219 C-186.7862531 54.16358623 -183.99014745 56.12043727 -181.01757812 57.95214844 C-180.57027344 58.38398438 -180.12296875 58.81582031 -179.66210938 59.26074219 C-179.66210938 60.58074219 -179.66210938 61.90074219 -179.66210938 63.26074219 C-181.31210937 62.93074219 -182.96210938 62.60074219 -184.66210938 62.26074219 C-184.66210938 60.94074219 -184.66210938 59.62074219 -184.66210938 58.26074219 C-187.63210938 58.26074219 -190.60210937 58.26074219 -193.66210938 58.26074219 C-193.39398438 59.53949219 -193.12585938 60.81824219 -192.84960938 62.13574219 C-192.69878906 62.85503906 -192.54796875 63.57433594 -192.39257812 64.31542969 C-191.73902099 66.63120768 -191.73902099 66.63120768 -188.66210938 68.26074219 C-185.59716931 68.61710796 -185.59716931 68.61710796 -182.22460938 68.57324219 C-180.52498047 68.59837891 -180.52498047 68.59837891 -178.79101562 68.62402344 C-175.36918475 68.22673221 -173.96712527 67.80459106 -171.66210938 65.26074219 C-170.89520937 61.8829988 -171.12198985 58.67024672 -171.66210938 55.26074219 C-173.35453021 52.65159339 -175.05901379 51.61408254 -177.70898438 50.06152344 C-178.43601562 49.63226563 -179.16304688 49.20300781 -179.91210938 48.76074219 C-180.97171875 48.18839844 -180.97171875 48.18839844 -182.05273438 47.60449219 C-182.58382812 47.16105469 -183.11492187 46.71761719 -183.66210938 46.26074219 C-183.66210938 44.94074219 -183.66210938 43.62074219 -183.66210938 42.26074219 C-182.34210938 42.26074219 -181.02210938 42.26074219 -179.66210938 42.26074219 C-179.66210938 43.91074219 -179.66210938 45.56074219 -179.66210938 47.26074219 C-176.69210937 47.26074219 -173.72210938 47.26074219 -170.66210938 47.26074219 C-170.92296834 42.42702836 -170.92296834 42.42702836 -173.28710938 38.38574219 C-176.37508792 36.92301551 -179.27936451 36.58600612 -182.66210938 36.26074219 C-180.40656457 34.00519739 -178.82186747 33.42818825 -175.84179688 32.34277344 C-174.84414307 31.97901611 -173.84648926 31.61525879 -172.81860352 31.24047852 C-171.73571045 30.85529053 -170.65281738 30.47010254 -169.53710938 30.07324219 C-167.85379517 29.47322388 -167.85379517 29.47322388 -166.13647461 28.86108398 C-146.3358023 21.90124266 -126.18581313 16.61270311 -105.66210938 12.26074219 C-104.58638168 12.03233643 -104.58638168 12.03233643 -103.48892212 11.79931641 C-91.53705752 9.28133199 -79.56743173 7.20382544 -67.47241211 5.50537109 C-64.85916283 5.13708855 -62.24798097 4.75611164 -59.63671875 4.37402344 C-39.77852422 1.51536264 -20.06866434 -0.08610318 0 0 Z " fill="#0E4EA3" transform="translate(618.662109375,328.7392578125)"/>
<path d="M0 0 C4.95 0 9.9 0 15 0 C16.47039847 5.88159387 17.22018299 10.94496767 17 17 C17.66 17 18.32 17 19 17 C18.95875 15.865625 18.9175 14.73125 18.875 13.5625 C18.85803209 8.81997045 19.85243375 4.59026501 21 0 C25.62 0 30.24 0 35 0 C35.79585256 10.687163 36.12825004 21.28399677 36 32 C33.03 32 30.06 32 27 32 C26.67 26.06 26.34 20.12 26 14 C25.01 19.61 24.02 25.22 23 31 C19.7 31 16.4 31 13 31 C12.01 25.72 11.02 20.44 10 15 C9.67 20.61 9.34 26.22 9 32 C6.03 32 3.06 32 0 32 C0 21.44 0 10.88 0 0 Z " fill="#F0F4F9" transform="translate(491,366)"/>
<path d="M0 0 C3.63 0 7.26 0 11 0 C13.31 4.95 15.62 9.9 18 15 C18.33 10.05 18.66 5.1 19 0 C21.97 0 24.94 0 28 0 C28 10.56 28 21.12 28 32 C24.37 32 20.74 32 17 32 C14.69 26.72 12.38 21.44 10 16 C9.67 21.28 9.34 26.56 9 32 C6.03 32 3.06 32 0 32 C0 21.44 0 10.88 0 0 Z " fill="#EEF2F8" transform="translate(604,366)"/>
<path d="M0 0 C2.97 0 5.94 0 9 0 C9.33 8.25 9.66 16.5 10 25 C10.99 25 11.98 25 13 25 C13.33 16.75 13.66 8.5 14 0 C16.97 0 19.94 0 23 0 C23.11633933 4.22893468 23.18729952 8.45745674 23.25 12.6875 C23.30027344 14.48477539 23.30027344 14.48477539 23.3515625 16.31835938 C23.36445312 17.47529297 23.37734375 18.63222656 23.390625 19.82421875 C23.41157227 20.88729248 23.43251953 21.95036621 23.45410156 23.0456543 C22.88585953 26.7425881 21.61332218 28.37045517 19 31 C16.00110054 31.99963315 13.76733714 32.23071314 10.625 32.3125 C9.22121094 32.36857422 9.22121094 32.36857422 7.7890625 32.42578125 C4.09672855 31.86210562 2.61739516 30.64451562 0 28 C-0.56762695 24.97558594 -0.56762695 24.97558594 -0.48828125 21.484375 C-0.47216797 20.23398437 -0.45605469 18.98359375 -0.43945312 17.6953125 C-0.39755859 16.39335937 -0.35566406 15.09140625 -0.3125 13.75 C-0.28994141 12.43257813 -0.26738281 11.11515625 -0.24414062 9.7578125 C-0.18519594 6.50406596 -0.10295053 3.25260329 0 0 Z " fill="#F8FAFC" transform="translate(570,366)"/>
<path d="M0 0 C3.25 1.625 3.25 1.625 5 4 C5.3125 7.25 5.3125 7.25 5 10 C2.36 10 -0.28 10 -3 10 C-3.33 9.01 -3.66 8.02 -4 7 C-6.01508358 6.26676204 -6.01508358 6.26676204 -8 6 C-7.63790024 8.38830276 -7.63790024 8.38830276 -6 11 C-3.76910226 12.48445369 -1.49118029 13.69189554 0.90625 14.88671875 C3 16 3 16 5 18 C5.55964143 21.7113063 5.54909685 25.28810532 5 29 C1.70049352 32.74538574 -1.36508273 33.87661002 -6.3125 34.25 C-10.33763189 33.9771097 -12.60309707 33.13293905 -16 31 C-18.29013653 27.5647952 -18.17842973 26.014669 -18 22 C-14.7 22 -11.4 22 -8 22 C-8 23.65 -8 25.3 -8 27 C-6.68 27 -5.36 27 -4 27 C-4 25.35 -4 23.7 -4 22 C-4.70125 21.7525 -5.4025 21.505 -6.125 21.25 C-10.71045347 19.25632458 -14.20658691 17.19011964 -17 13 C-17.76381247 8.63420874 -17.78011462 5.1423107 -15.25 1.4375 C-10.21037251 -0.791566 -5.41777682 -0.73334548 0 0 Z " fill="#F5F7FA" transform="translate(554,365)"/>
<path d="M0 0 C4.95 0 9.9 0 15 0 C15.71532175 3.91383188 16.42848998 7.82796294 17.13623047 11.74316406 C17.37748677 13.07412164 17.61998685 14.40485441 17.86376953 15.73535156 C18.21455909 17.6510921 18.56046268 19.56772526 18.90625 21.484375 C19.11572266 22.63647461 19.32519531 23.78857422 19.54101562 24.97558594 C20 28 20 28 20 32 C17.03 32 14.06 32 11 32 C9.88015881 29.76031763 9.71344334 28.1344334 9.46484375 25.6484375 C9.37783203 24.79765625 9.29082031 23.946875 9.20117188 23.0703125 C9.11416016 22.18085938 9.02714844 21.29140625 8.9375 20.375 C8.84662109 19.4778125 8.75574219 18.580625 8.66210938 17.65625 C8.43790708 15.43782728 8.21735434 13.2191024 8 11 C6.3021743 15.57984917 5.44587513 20.04595795 4.875 24.875 C4.78863281 25.56335938 4.70226562 26.25171875 4.61328125 26.9609375 C4.40340434 28.63995275 4.20092913 30.31989048 4 32 C1.03 32 -1.94 32 -5 32 C-4.62166277 24.49848591 -3.80828487 17.20300987 -2.5 9.8125 C-2.36940186 9.07008057 -2.23880371 8.32766113 -2.10424805 7.56274414 C-1.1354612 2.27092241 -1.1354612 2.27092241 0 0 Z " fill="#F1F5F9" transform="translate(462,366)"/>
<path d="M0 0 C4.67284863 1.58543078 7.54327282 3.67616017 10 8 C10.07920264 12.43534796 9.51483823 14.3738454 6.6875 17.8125 C1.75147263 21.8301967 -1.86480731 22.49641232 -8.16796875 22.38671875 C-12.51400425 21.79326011 -15.83147113 20.01764655 -19 17 C-20.76405898 14.1582201 -21 13.02245502 -21 9.5625 C-19.66854325 4.81918534 -17.99197463 3.76994158 -14 1 C-9.83626979 -1.0818651 -4.54581641 -0.32725118 0 0 Z " fill="#1956A7" transform="translate(731,449)"/>
<path d="M0 0 C8.58 0 17.16 0 26 0 C26 5.94 26 11.88 26 18 C17.42 18 8.84 18 0 18 C0 12.06 0 6.12 0 0 Z " fill="#0C4DA2" transform="translate(674,451)"/>
<path d="M0 0 C6.6 0 13.2 0 20 0 C20 11.25484929 18.19132583 22.56775282 10 31 C4.81081081 35 4.81081081 35 0 35 C-0.33 33.68 -0.66 32.36 -1 31 C-0.22076172 30.48953125 -0.22076172 30.48953125 0.57421875 29.96875 C5.92779348 26.24796608 8.85289485 22.70412808 12 17 C8.04 17 4.08 17 0 17 C0 15.68 0 14.36 0 13 C4.62 13 9.24 13 14 13 C14 10.36 14 7.72 14 5 C9.38 5 4.76 5 0 5 C0 3.35 0 1.7 0 0 Z " fill="#1956A7" transform="translate(747,427)"/>
<path d="M0 0 C9.24 0 18.48 0 28 0 C28 1.65 28 3.3 28 5 C20.41 5 12.82 5 5 5 C5 9.62 5 14.24 5 19 C12.59 19 20.18 19 28 19 C28 20.32 28 21.64 28 23 C18.76 23 9.52 23 0 23 C0 15.41 0 7.82 0 0 Z " fill="#1654A6" transform="translate(786,426)"/>
<path d="M0 0 C1.98 0 3.96 0 6 0 C6 4.62 6 9.24 6 14 C7.32 14 8.64 14 10 14 C10 15.65 10 17.3 10 19 C8.68 19 7.36 19 6 19 C6 27.58 6 36.16 6 45 C4.02 45 2.04 45 0 45 C0 30.15 0 15.3 0 0 Z " fill="#1E5AA9" transform="translate(771,425)"/>
<path d="M0 0 C1.98 0 3.96 0 6 0 C6.14695312 0.99580078 6.14695312 0.99580078 6.296875 2.01171875 C7.20767735 7.39016365 8.02133525 11.02133525 12 15 C12.5775 15.598125 13.155 16.19625 13.75 16.8125 C14.1625 17.204375 14.575 17.59625 15 18 C13.68 18.99 12.36 19.98 11 21 C5.25 16.375 5.25 16.375 3 13 C0.36 15.64 -2.28 18.28 -5 21 C-6.32 20.34 -7.64 19.68 -9 19 C-7.91998769 16.5699723 -6.86851272 14.85578814 -5.0625 12.875 C-2.21249223 8.9022619 -1.20335851 4.69492144 0 0 Z " fill="#1A57A7" transform="translate(676,427)"/>
<path d="M0 0 C3.125 2 3.125 2 5 4 C4.875 6.3125 4.875 6.3125 4 9 C-0.28215153 11.95672368 -3.86153429 12.65398654 -9 12 C-11.9375 10 -11.9375 10 -14 8 C-13.6875 5.125 -13.6875 5.125 -13 2 C-8.77212884 -0.81858077 -4.96777924 -0.68030098 0 0 Z " fill="#F6F8FB" transform="translate(730,454)"/>
<path d="M0 0 C1.65 0 3.3 0 5 0 C5.25523437 0.99580078 5.25523437 0.99580078 5.515625 2.01171875 C6.92383421 7.14269378 8.13937572 11.13937572 12 15 C12.66 15.33 13.32 15.66 14 16 C13.34 17.32 12.68 18.64 12 20 C7.58110387 18.64978174 5.65654657 16.73884332 3 13 C0.36 15.64 -2.28 18.28 -5 21 C-5.99 20.34 -6.98 19.68 -8 19 C-7.4481437 15.13700588 -5.69346579 13.69346579 -3 11 C-1.21270447 7.42540894 -0.55025909 3.94352346 0 0 Z " fill="#1654A6" transform="translate(714,427)"/>
<path d="M0 0 C11.22 0 22.44 0 34 0 C34 1.65 34 3.3 34 5 C22.78 5 11.56 5 0 5 C0 3.35 0 1.7 0 0 Z " fill="#225CAA" transform="translate(783,460)"/>
<path d="M0 0 C5.28 0 10.56 0 16 0 C16 3.3 16 6.6 16 10 C10.72 10 5.44 10 0 10 C0 6.7 0 3.4 0 0 Z " fill="#F1F5F9" transform="translate(679,455)"/>
<path d="M0 0 C1.98 0 3.96 0 6 0 C6 3.3 6 6.6 6 10 C7.32 10 8.64 10 10 10 C10 11.32 10 12.64 10 14 C8.68 14 7.36 14 6 14 C6 16.97 6 19.94 6 23 C4.02 23 2.04 23 0 23 C0 15.41 0 7.82 0 0 Z " fill="#1956A7" transform="translate(695,426)"/>
<path d="M0 0 C1.65 0 3.3 0 5 0 C5 7.59 5 15.18 5 23 C3.35 23 1.7 23 0 23 C0 19.37 0 15.74 0 12 C-2.31 12 -4.62 12 -7 12 C-7 10.68 -7 9.36 -7 8 C-4.69 8 -2.38 8 0 8 C0 5.36 0 2.72 0 0 Z " fill="#0D4DA2" transform="translate(734,426)"/>
<path d="M0 0 C7.26 0 14.52 0 22 0 C22 1.32 22 2.64 22 4 C14.74 4 7.48 4 0 4 C0 2.68 0 1.36 0 0 Z " fill="#0D4DA2" transform="translate(792,445)"/>
<path d="M0 0 C0.33 0 0.66 0 1 0 C1.33 2.64 1.66 5.28 2 8 C2.33 8 2.66 8 3 8 C3 9.65 3 11.3 3 13 C3.66 13 4.32 13 5 13 C5 14.98 5 16.96 5 19 C3.0625 19.5625 3.0625 19.5625 1 20 C0 19 0 19 -0.11352539 17.14233398 C-0.10828857 16.35157471 -0.10305176 15.56081543 -0.09765625 14.74609375 C-0.09443359 13.89208984 -0.09121094 13.03808594 -0.08789062 12.15820312 C-0.07951172 11.26037109 -0.07113281 10.36253906 -0.0625 9.4375 C-0.05798828 8.53580078 -0.05347656 7.63410156 -0.04882812 6.70507812 C-0.03700225 4.46998686 -0.0205222 2.23502563 0 0 Z " fill="#4073B6" transform="translate(651,372)"/>
<path d="M0 0 C2.475 0.495 2.475 0.495 5 1 C5 1.99 5 2.98 5 4 C7.64 4 10.28 4 13 4 C13 4.33 13 4.66 13 5 C11.35 5 9.7 5 8 5 C7.67 5.99 7.34 6.98 7 8 C4.0625 6.8125 4.0625 6.8125 1 5 C0.125 2.3125 0.125 2.3125 0 0 Z " fill="#396EB3" transform="translate(546,371)"/>
<path d="M0 0 C1.32 0.66 2.64 1.32 4 2 C4 3.32 4 4.64 4 6 C2.35 5.67 0.7 5.34 -1 5 C-0.67 3.35 -0.34 1.7 0 0 Z " fill="#255FAB" transform="translate(435,386)"/>
<path d="M0 0 C1.32 0 2.64 0 4 0 C3.67 1.98 3.34 3.96 3 6 C1.68 5.01 0.36 4.02 -1 3 C-0.67 2.01 -0.34 1.02 0 0 Z " fill="#215CAA" transform="translate(435,371)"/>
</svg>
