<?xml version="1.0" encoding="UTF-8"?>
<svg version="1.1" xmlns="http://www.w3.org/2000/svg" width="1200" height="800">
<path d="M0 0 C396 0 792 0 1200 0 C1200 264 1200 528 1200 800 C804 800 408 800 0 800 C0 536 0 272 0 0 Z " fill="#FEFEFE" transform="translate(0,0)"/>
<path d="M0 0 C4.62 0 9.24 0 14 0 C14.15858059 8.33680814 14.28681286 16.67243071 14.3626852 25.01034546 C14.3991131 28.8826328 14.44846468 32.75382892 14.52807617 36.62548828 C14.60452025 40.36681728 14.64606873 44.10710153 14.6641407 47.84915161 C14.67700713 49.27174314 14.70213374 50.69428182 14.7401104 52.11642456 C15.06098292 64.63822953 15.06098292 64.63822953 10.59472656 69.78393555 C9.42108053 70.88283017 8.22542595 71.95916108 7 73 C6.27425781 73.81082031 5.54851563 74.62164062 4.80078125 75.45703125 C0.15450167 78.01669713 -4.59905683 77.69695035 -9.8125 77.6875 C-10.86759766 77.72810547 -11.92269531 77.76871094 -13.00976562 77.81054688 C-18.58311933 77.83485434 -22.18942418 77.4590507 -26.51171875 73.76953125 C-28.2878418 71.99536133 -28.2878418 71.99536133 -30 70 C-30.71591309 69.24372314 -31.43182617 68.48744629 -32.16943359 67.70825195 C-35.43553582 62.87618047 -34.86080297 57.20744689 -34.90600586 51.55517578 C-34.93718026 49.39713405 -35.04820517 47.25269407 -35.16210938 45.09765625 C-35.34209144 38.54277682 -34.89637376 33.15199338 -30.50186157 27.98701477 C-26.77070851 24.20321499 -23.2731229 21.4388034 -17.91015625 20.85546875 C-15.47460938 20.93554688 -15.47460938 20.93554688 -13.0625 21.1875 C-12.23943359 21.22037109 -11.41636719 21.25324219 -10.56835938 21.28710938 C-6.26486215 21.52095716 -3.98127528 22.00936236 0 24 C0 16.08 0 8.16 0 0 Z " fill="#1F3B8E" transform="translate(883,373)"/>
<path d="M0 0 C1.19850586 -0.02610352 2.39701172 -0.05220703 3.63183594 -0.07910156 C12.8324204 0.17611926 18.18806082 3.10801806 25 9.1875 C23.41996314 13.58059313 21.44802976 16.01168312 18 19.1875 C16.88496094 18.53394531 15.76992188 17.88039063 14.62109375 17.20703125 C9.71837903 14.7572948 5.45625986 14.68757205 0.0625 14.875 C-0.79923828 14.88466797 -1.66097656 14.89433594 -2.54882812 14.90429688 C-6.59759036 14.59548373 -6.59759036 14.59548373 -10 16.1875 C-10.15091913 17.99562724 -10.22169008 19.81080617 -10.25 21.625 C-10.27578125 22.61371094 -10.3015625 23.60242188 -10.328125 24.62109375 C-10.21984375 25.46800781 -10.1115625 26.31492187 -10 27.1875 C-6.85525477 29.28399682 -5.33322047 29.59947546 -1.66796875 30.08203125 C-0.62189453 30.23349609 0.42417969 30.38496094 1.50195312 30.54101562 C3.6959149 30.84519322 5.89125678 31.13958868 8.08789062 31.42382812 C14.56482681 32.38204889 18.49797107 33.31858246 23 38.1875 C24.97081618 42.12913235 24.53362141 46.85190334 24.6875 51.1875 C24.76677734 52.19167969 24.84605469 53.19585937 24.92773438 54.23046875 C25.10082388 60.45364034 23.99437433 64.10403593 19.890625 68.8671875 C13.44807189 74.56472229 7.3593243 74.6175 -0.9375 74.3125 C-2.23107422 74.33441406 -3.52464844 74.35632813 -4.85742188 74.37890625 C-14.41452021 74.23373514 -19.96787818 71.59663822 -27 65.1875 C-22.25 56.3125 -22.25 56.3125 -20 55.1875 C-18.865625 55.82171875 -17.73125 56.4559375 -16.5625 57.109375 C-11.4040477 59.81919488 -6.71420002 59.64242304 -1 59.4375 C-0.03449219 59.41945313 0.93101562 59.40140625 1.92578125 59.3828125 C4.28429037 59.33610935 6.6422817 59.26438212 9 59.1875 C9 54.8975 9 50.6075 9 46.1875 C3.83380631 44.44658442 3.83380631 44.44658442 -1.3125 43.4765625 C-2.07820313 43.36570312 -2.84390625 43.25484375 -3.6328125 43.140625 C-5.20989362 42.9220197 -6.78805462 42.71106723 -8.3671875 42.5078125 C-14.70303529 41.56916838 -18.57117983 39.44019998 -23.31640625 35.0390625 C-27.20791219 28.44788075 -26.40730272 19.50190758 -25 12.1875 C-23.49886557 7.52865045 -20.76179962 4.25317134 -16.35742188 1.97998047 C-11.04577311 0.19439514 -5.55934044 0.09992042 0 0 Z " fill="#213D8F" transform="translate(329,376.8125)"/>
<path d="M0 0 C4.95 0 9.9 0 15 0 C15.33 7.59 15.66 15.18 16 23 C16.66 22.67 17.32 22.34 18 22 C20.80693642 21.57642405 23.48909601 21.30625556 26.3125 21.125 C27.05306641 21.02058594 27.79363281 20.91617187 28.55664062 20.80859375 C34.65864405 20.50891873 38.672738 23.29998957 43.0546875 27.22265625 C48.56065886 32.68373986 50.14234473 37.56054059 50.26953125 45.23828125 C50.23121291 48.93966279 50.03328004 52.61819937 49.8125 56.3125 C49.74715304 58.22831721 49.68786168 60.144351 49.63476562 62.06054688 C49.49285024 66.71246901 49.26944245 71.35379172 49 76 C44.38 76 39.76 76 35 76 C34.9906543 74.90010742 34.98130859 73.80021484 34.97167969 72.66699219 C34.93177063 68.58145834 34.86600996 64.49667681 34.79248047 60.41162109 C34.76427603 58.64446689 34.74305882 56.87718666 34.72900391 55.10986328 C34.70756642 52.56737778 34.66091497 50.02640662 34.609375 47.484375 C34.60814636 46.69569031 34.60691772 45.90700562 34.60565186 45.09442139 C34.4621883 39.70713783 34.08527862 39.08527862 30 35 C25.38 35 20.76 35 16 35 C15.67 48.86 15.34 62.72 15 77 C10.05 77 5.1 77 0 77 C0 51.59 0 26.18 0 0 Z " fill="#254091" transform="translate(515,373)"/>
<path d="M0 0 C4.44088138 -0.2448682 8.86807901 -0.42214986 13.3125 -0.5625 C14.55580078 -0.63791016 15.79910156 -0.71332031 17.08007812 -0.79101562 C25.23414427 -0.98363136 30.93032375 0.18350567 36.99682617 5.87768555 C40.75341896 11.73302561 40.40043066 17.959614 40.10449219 24.73022461 C39.99969233 27.19473528 39.98146957 29.64869533 39.9765625 32.11523438 C39.94773974 33.69541229 39.91405345 35.27551058 39.875 36.85546875 C39.86629883 37.5837236 39.85759766 38.31197845 39.84863281 39.06230164 C39.5589416 44.76298117 37.83179773 47.07143419 34 51 C33.33355469 51.76828125 32.66710937 52.5365625 31.98046875 53.328125 C27.02261869 56.10919947 21.89722217 55.7375132 16.3125 55.75 C15.17876953 55.79898438 14.04503906 55.84796875 12.87695312 55.8984375 C4.90198631 55.95359577 0.7191831 54.18776102 -5.18286133 48.82128906 C-5.78251709 48.22026367 -6.38217285 47.61923828 -7 47 C-7.33 46.67 -7.66 46.34 -8 46 C-8.98900961 38.92539096 -9.70968138 32.03079882 -6.109375 25.6484375 C-1.52261773 20.88315374 2.64579335 18.52512067 9.203125 18.18774414 C15.26395614 18.18704266 19.71798383 18.96181706 25 22 C24.71848913 20.68528432 24.42446661 19.37324233 24.125 18.0625 C23.96257813 17.33160156 23.80015625 16.60070312 23.6328125 15.84765625 C23.17038477 13.79299706 23.17038477 13.79299706 21 13 C19.40737934 12.84824451 17.80935144 12.75099675 16.2109375 12.68359375 C15.26992188 12.64169922 14.32890625 12.59980469 13.359375 12.55664062 C12.37453125 12.51732422 11.3896875 12.47800781 10.375 12.4375 C9.38242187 12.39431641 8.38984375 12.35113281 7.3671875 12.30664062 C4.91162967 12.20039053 2.45583349 12.09967545 0 12 C0 8.04 0 4.08 0 0 Z " fill="#223D8F" transform="translate(583,395)"/>
<path d="M0 0 C4.44088138 -0.2448682 8.86807901 -0.42214986 13.3125 -0.5625 C14.55580078 -0.63791016 15.79910156 -0.71332031 17.08007812 -0.79101562 C25.21990849 -0.98329508 30.92203463 0.169667 36.97485352 5.85961914 C40.79924903 11.79008321 40.58907281 18.11181046 40.37915039 24.99267578 C40.31249092 27.50034148 40.35820971 29.98854683 40.41601562 32.49609375 C40.43389252 40.00696323 40.22860728 45.95623091 34.73046875 51.58984375 C28.74863799 55.92057613 23.2046637 56.3174214 16 56.0625 C14.88882813 56.08892578 13.77765625 56.11535156 12.6328125 56.14257812 C3.31062318 56.01645439 -1.56168684 52.43831316 -8 46 C-8.98800899 38.93254863 -9.68739926 32.04797593 -6.14453125 25.6484375 C-1.42208266 20.6902237 2.85605138 18.51245585 9.60961914 18.18774414 C15.42753297 18.18711714 20.1160839 18.44719045 25 22 C24.69181644 20.68647977 24.37832335 19.37420428 24.0625 18.0625 C23.88847656 17.33160156 23.71445312 16.60070312 23.53515625 15.84765625 C23.16112431 14.00030102 23.16112431 14.00030102 22 13 C20.36743242 12.84285346 18.72864662 12.74914586 17.08984375 12.68359375 C16.10048828 12.64169922 15.11113281 12.59980469 14.09179688 12.55664062 C13.05087891 12.51732422 12.00996094 12.47800781 10.9375 12.4375 C9.89271484 12.39431641 8.84792969 12.35113281 7.77148438 12.30664062 C5.18116028 12.20018895 2.59059825 12.09955692 0 12 C0 8.04 0 4.08 0 0 Z " fill="#223D8F" transform="translate(760,395)"/>
<path d="M0 0 C4.62 0 9.24 0 14 0 C14 7.92 14 15.84 14 24 C14.99 23.34 15.98 22.68 17 22 C23.32691737 20.66976239 32.13313368 19.90585081 37.95019531 23.05615234 C42.08649097 26.26737903 45.65102407 30.30204813 48 35 C48.08711775 38.06242321 48.1154846 41.10186465 48.09765625 44.1640625 C48.0962413 45.07127045 48.09482635 45.97847839 48.09336853 46.91317749 C48.08776096 49.81715155 48.07520718 52.72104915 48.0625 55.625 C48.05748598 57.59114472 48.0529229 59.55729065 48.04882812 61.5234375 C48.03778906 66.3489879 48.02051935 71.17448097 48 76 C43.38 76 38.76 76 34 76 C33.98598145 74.29686646 33.98598145 74.29686646 33.97167969 72.55932617 C33.9318243 68.34896527 33.86607871 64.13933855 33.79248047 59.92944336 C33.76424486 58.10694811 33.7430432 56.28432981 33.72900391 54.46166992 C33.7076096 51.84229417 33.66098021 49.22440185 33.609375 46.60546875 C33.60814636 45.78974899 33.60691772 44.97402924 33.60565186 44.1335907 C33.58342806 41.56488213 33.58342806 41.56488213 33 38 C27.96666667 33.6 27.96666667 33.6 15 35 C14.67 48.53 14.34 62.06 14 76 C9.38 76 4.76 76 0 76 C0 50.92 0 25.84 0 0 Z " fill="#1E3A8D" transform="translate(366,373)"/>
<path d="M0 0 C1.79050781 -0.02610352 1.79050781 -0.02610352 3.6171875 -0.05273438 C12.82540123 0.13364632 18.19363826 3.11299578 25 9.1875 C23.61702141 12.76520548 22.04383021 15.93595193 20 19.1875 C14.39279207 17.40338839 14.39279207 17.40338839 12.07885742 16.1315918 C9.70702506 15.05444843 8.08209662 14.94316639 5.48828125 14.95703125 C4.64845703 14.95896484 3.80863281 14.96089844 2.94335938 14.96289062 C2.07517578 14.97513672 1.20699219 14.98738281 0.3125 15 C-1.00717773 15.0009668 -1.00717773 15.0009668 -2.35351562 15.00195312 C-6.50345289 14.66024753 -6.50345289 14.66024753 -10 16.1875 C-10.1011692 19.27831465 -10.13968558 22.34632555 -10.1328125 25.4375 C-10.13376923 26.36594727 -10.13472595 27.29439453 -10.13571167 28.25097656 C-10.13639355 30.21809965 -10.13453872 32.18522496 -10.13037109 34.15234375 C-10.12502295 37.17453026 -10.13031582 40.19656815 -10.13671875 43.21875 C-10.13605797 45.12500033 -10.13477681 47.03125057 -10.1328125 48.9375 C-10.13483673 49.84790039 -10.13686096 50.75830078 -10.13894653 51.69628906 C-10.53891332 55.76413678 -10.53891332 55.76413678 -9 59.1875 C-5.84323299 59.49677785 -2.67002925 59.46613217 0.5 59.5 C1.37398437 59.52900391 2.24796875 59.55800781 3.1484375 59.58789062 C9.74354038 59.65149325 14.13873833 58.20747933 20 55.1875 C21.98 58.1575 23.96 61.1275 26 64.1875 C20.49690018 70.19088162 15.82226853 73.2856572 7.578125 73.96484375 C5.13599477 74.0401692 2.69308104 74.09292173 0.25 74.125 C-0.96171875 74.19912109 -2.1734375 74.27324219 -3.421875 74.34960938 C-10.19383183 74.44812383 -14.91163757 73.41787136 -20.3046875 69.19140625 C-27.01807291 62.35300339 -26.54066435 53.00637684 -26.50390625 43.984375 C-26.48086426 42.86740234 -26.45782227 41.75042969 -26.43408203 40.59960938 C-26.37506314 37.19114636 -26.43360325 33.79859992 -26.50390625 30.390625 C-26.5802014 11.58015995 -26.5802014 11.58015995 -20.2890625 5.19921875 C-13.86086229 0.16895156 -7.94823737 -0.37337832 0 0 Z " fill="#203C8E" transform="translate(719,376.8125)"/>
<path d="M0 0 C1.64162109 0.0302124 1.64162109 0.0302124 3.31640625 0.06103516 C10.48768409 0.50068241 15.15920833 1.98010155 20.0625 7.3125 C24.97527712 13.1351448 25.7038939 17.08918313 25.66015625 24.6015625 C25.6587413 25.50877045 25.65732635 26.41597839 25.65586853 27.35067749 C25.65026096 30.25465155 25.63770718 33.15854915 25.625 36.0625 C25.61998598 38.02864472 25.6154229 39.99479065 25.61132812 41.9609375 C25.60028906 46.7864879 25.58301935 51.61198097 25.5625 56.4375 C20.6125 56.4375 15.6625 56.4375 10.5625 56.4375 C10.2325 42.9075 9.9025 29.3775 9.5625 15.4375 C6.1971364 14.31571213 3.5421245 14.26978841 0 14.25 C-1.15628906 14.23582031 -2.31257812 14.22164063 -3.50390625 14.20703125 C-6.56066386 14.12762807 -6.56066386 14.12762807 -8.4375 16.4375 C-8.6834409 19.3741021 -8.81125252 22.22312112 -8.8515625 25.1640625 C-8.87092865 26.02687836 -8.8902948 26.88969421 -8.9102478 27.77865601 C-8.97012204 30.53983616 -9.01645998 33.30105784 -9.0625 36.0625 C-9.10067259 37.93231005 -9.13972389 39.80210238 -9.1796875 41.671875 C-9.27582992 46.26027309 -9.35983166 50.84875351 -9.4375 55.4375 C-14.0575 55.4375 -18.6775 55.4375 -23.4375 55.4375 C-23.7115104 49.51542631 -23.9099529 43.59711365 -24.04174805 37.67016602 C-24.09672882 35.659095 -24.17154768 33.64845688 -24.26733398 31.63891602 C-25.12130987 13.24875084 -25.12130987 13.24875084 -20.08529663 7.05880737 C-14.16531274 1.11888356 -8.14265983 -0.35549296 0 0 Z " fill="#243F90" transform="translate(656.4375,393.5625)"/>
<path d="M0 0 C1.69286133 -0.04253906 1.69286133 -0.04253906 3.41992188 -0.0859375 C8.42345823 -0.09771746 11.70449429 -0.09506748 16.04296875 2.53125 C17.35201172 4.00078125 17.35201172 4.00078125 18.6875 5.5 C19.2701059 6.05751953 19.85271179 6.61503906 20.45297241 7.18945312 C24.81304742 11.58700072 26.48448451 14.59761195 26.48057556 20.80993652 C26.44444656 21.68734497 26.40831757 22.56475342 26.37109375 23.46875 C26.36118912 24.38966431 26.35128448 25.31057861 26.34107971 26.25939941 C26.30217651 29.17461621 26.21440758 32.08593946 26.125 35 C26.0898547 36.98692443 26.05792135 38.97390843 26.02929688 40.9609375 C25.95249425 45.80877104 25.83188541 50.65372762 25.6875 55.5 C21.0675 55.5 16.4475 55.5 11.6875 55.5 C11.67348145 53.80472168 11.67348145 53.80472168 11.65917969 52.07519531 C11.61927608 47.87785579 11.55351674 43.68124896 11.47998047 39.484375 C11.4517729 37.66871561 11.43055726 35.85293348 11.41650391 34.03710938 C11.39507091 31.42514211 11.34842115 28.81465026 11.296875 26.203125 C11.29564636 25.39256653 11.29441772 24.58200806 11.29315186 23.74688721 C11.19940677 20.13142923 11.00733227 17.93426265 8.83349609 14.98266602 C5.95170465 12.99163991 4.03342898 13.06384283 0.5625 13.1875 C-0.49195313 13.21199219 -1.54640625 13.23648437 -2.6328125 13.26171875 C-5.2826729 13.33248856 -5.2826729 13.33248856 -7.3125 14.5 C-7.6425 27.7 -7.9725 40.9 -8.3125 54.5 C-12.9325 54.5 -17.5525 54.5 -22.3125 54.5 C-22.48630102 48.52277289 -22.61292298 42.54703444 -22.69702148 36.56787109 C-22.73209766 34.53668581 -22.77977355 32.50567567 -22.84057617 30.47509766 C-22.9260659 27.54545805 -22.96531564 24.61816474 -22.99609375 21.6875 C-23.03222275 20.78821777 -23.06835175 19.88893555 -23.10557556 18.96240234 C-23.10942569 12.69776139 -21.50864754 9.63172211 -17.11268616 5.18481445 C-16.51862473 4.62882568 -15.92456329 4.07283691 -15.3125 3.5 C-14.53582977 2.66063904 -14.53582977 2.66063904 -13.74346924 1.80432129 C-10.42912004 -1.2166914 -4.23454567 -0.009575 0 0 Z " fill="#203B8E" transform="translate(478.3125,394.5)"/>
<path d="M0 0 C1.47533203 0.02707031 1.47533203 0.02707031 2.98046875 0.0546875 C5.40406341 0.10174759 7.82715625 0.17348914 10.25 0.25 C10.25 4.21 10.25 8.17 10.25 12.25 C8.76886719 12.32347656 8.76886719 12.32347656 7.2578125 12.3984375 C5.97648438 12.47320312 4.69515625 12.54796875 3.375 12.625 C1.46074219 12.72941406 1.46074219 12.72941406 -0.4921875 12.8359375 C-3.83061699 12.92241106 -3.83061699 12.92241106 -5.75 15.25 C-5.99606015 18.25886724 -6.12380782 21.18217752 -6.1640625 24.1953125 C-6.18342865 25.0803244 -6.2027948 25.9653363 -6.2227478 26.87716675 C-6.28262723 29.70967916 -6.32896213 32.54223203 -6.375 35.375 C-6.41317211 37.29298668 -6.45222338 39.21095607 -6.4921875 41.12890625 C-6.58833555 45.83579748 -6.67233542 50.54276896 -6.75 55.25 C-11.7 55.25 -16.65 55.25 -21.75 55.25 C-21.92380102 49.27277289 -22.05042298 43.29703444 -22.13452148 37.31787109 C-22.16959766 35.28668581 -22.21727355 33.25567567 -22.27807617 31.22509766 C-22.3635659 28.29545805 -22.40281564 25.36816474 -22.43359375 22.4375 C-22.46972275 21.53821777 -22.50585175 20.63893555 -22.54307556 19.71240234 C-22.54627701 14.50324338 -21.79482085 11.73833467 -18.31762695 7.76855469 C-17.1353507 6.58871501 -15.94704877 5.41484893 -14.75 4.25 C-14.16734375 3.43015625 -13.5846875 2.6103125 -12.984375 1.765625 C-9.07728103 -0.88464154 -4.58271192 -0.15865581 0 0 Z " fill="#274192" transform="translate(831.75,394.75)"/>
<path d="M0 0 C4.62 0 9.24 0 14 0 C14 18.15 14 36.3 14 55 C9.38 55 4.76 55 0 55 C0 36.85 0 18.7 0 0 Z " fill="#233E90" transform="translate(428,395)"/>
<path d="M0 0 C0.74958984 0.01353516 1.49917969 0.02707031 2.27148438 0.04101562 C4.11879767 0.07631461 5.96574066 0.13012083 7.8125 0.1875 C9.92631704 4.41513409 9.0418903 9.980088 9.0625 14.625 C9.083125 15.78322266 9.10375 16.94144531 9.125 18.13476562 C9.13015625 19.24400391 9.1353125 20.35324219 9.140625 21.49609375 C9.1499707 22.51501709 9.15931641 23.53394043 9.16894531 24.58374023 C8.8125 27.1875 8.8125 27.1875 7.51098633 29.01831055 C4.68557635 30.96324204 1.55356477 30.61875749 -1.75 30.5625 C-2.43513672 30.57410156 -3.12027344 30.58570313 -3.82617188 30.59765625 C-5.81640625 30.5859375 -5.81640625 30.5859375 -9.1875 30.1875 C-12.30246916 25.51504625 -11.51600857 20.68164246 -11.5 15.1875 C-11.51611328 14.08148438 -11.53222656 12.97546875 -11.54882812 11.8359375 C-11.54947266 10.77632813 -11.55011719 9.71671875 -11.55078125 8.625 C-11.55376221 7.65433594 -11.55674316 6.68367188 -11.55981445 5.68359375 C-11.1875 3.1875 -11.1875 3.1875 -9.90185547 1.3659668 C-6.93597814 -0.67280988 -3.46295214 -0.11795208 0 0 Z " fill="#F8F9FB" transform="translate(874.1875,406.8125)"/>
<path d="M0 0 C3.52055917 0.59084404 6.43361222 1.5155542 9.64453125 3.06640625 C10.48564453 3.46923828 11.32675781 3.87207031 12.19335938 4.28710938 C13.05767578 4.70798828 13.92199219 5.12886719 14.8125 5.5625 C15.69615234 5.98724609 16.57980469 6.41199219 17.49023438 6.84960938 C19.66264337 7.89471424 21.83239957 8.94496762 24 10 C23.31620454 13.95008059 22.21156817 16.63457018 20 20 C14.3789866 19.44675065 9.78225524 17.95270327 4.625 15.6875 C3.90183594 15.39166016 3.17867188 15.09582031 2.43359375 14.79101562 C0.3515625 13.88671875 0.3515625 13.88671875 -3 12 C-3.97255071 9.45445422 -4.16246922 8.44740268 -3.22265625 5.859375 C-2.83980469 5.16328125 -2.45695312 4.4671875 -2.0625 3.75 C-1.68222656 3.04359375 -1.30195313 2.3371875 -0.91015625 1.609375 C-0.60980469 1.07828125 -0.30945313 0.5471875 0 0 Z " fill="#223E8F" transform="translate(317,351)"/>
<path d="M0 0 C0.79792969 0.00386719 1.59585938 0.00773437 2.41796875 0.01171875 C3.21589844 0.00785156 4.01382813 0.00398438 4.8359375 0 C10.79136108 0.01011108 10.79136108 0.01011108 11.91796875 1.13671875 C12.01620812 2.80100926 12.04770506 4.46953806 12.04296875 6.13671875 C12.04683594 7.49796875 12.04683594 7.49796875 12.05078125 8.88671875 C11.91796875 11.13671875 11.91796875 11.13671875 10.91796875 12.13671875 C8.25974218 12.26330097 5.63909451 12.32192089 2.98046875 12.32421875 C2.23861328 12.33646484 1.49675781 12.34871094 0.73242188 12.36132812 C-1.20716754 12.36660353 -3.14626835 12.25860777 -5.08203125 12.13671875 C-7.08203125 10.13671875 -7.08203125 10.13671875 -7.3125 8.0078125 C-7.29123047 6.80318359 -7.29123047 6.80318359 -7.26953125 5.57421875 C-7.26308594 4.76855469 -7.25664063 3.96289062 -7.25 3.1328125 C-6.88385788 -1.21831832 -3.64764765 0.00619295 0 0 Z " fill="#F8F9FB" transform="translate(773.08203125,425.86328125)"/>
<path d="M0 0 C0.79792969 0.00386719 1.59585938 0.00773437 2.41796875 0.01171875 C3.21589844 0.00785156 4.01382813 0.00398438 4.8359375 0 C10.79136108 0.01011108 10.79136108 0.01011108 11.91796875 1.13671875 C12.01620812 2.80100926 12.04770506 4.46953806 12.04296875 6.13671875 C12.04683594 7.49796875 12.04683594 7.49796875 12.05078125 8.88671875 C11.91796875 11.13671875 11.91796875 11.13671875 10.91796875 12.13671875 C8.25974218 12.26330097 5.63909451 12.32192089 2.98046875 12.32421875 C2.23861328 12.33646484 1.49675781 12.34871094 0.73242188 12.36132812 C-1.20716754 12.36660353 -3.14626835 12.25860777 -5.08203125 12.13671875 C-7.08203125 10.13671875 -7.08203125 10.13671875 -7.3125 8.0078125 C-7.29123047 6.80318359 -7.29123047 6.80318359 -7.26953125 5.57421875 C-7.26308594 4.76855469 -7.25664063 3.96289062 -7.25 3.1328125 C-6.88385788 -1.21831832 -3.64764765 0.00619295 0 0 Z " fill="#F7F8FB" transform="translate(596.08203125,425.86328125)"/>
<path d="M0 0 C1.93166016 0.01740234 1.93166016 0.01740234 3.90234375 0.03515625 C5.19269531 0.04417969 6.48304688 0.05320312 7.8125 0.0625 C8.81152344 0.07410156 9.81054688 0.08570313 10.83984375 0.09765625 C10.86669787 2.41009417 10.88617216 4.72261895 10.90234375 7.03515625 C10.91394531 8.32292969 10.92554688 9.61070312 10.9375 10.9375 C10.83984375 14.09765625 10.83984375 14.09765625 9.83984375 15.09765625 C7.67503578 15.19658565 5.5069059 15.22736725 3.33984375 15.22265625 C2.15390625 15.22523438 0.96796875 15.2278125 -0.25390625 15.23046875 C-3.16015625 15.09765625 -3.16015625 15.09765625 -4.16015625 14.09765625 C-4.25908565 11.93284828 -4.28986725 9.7647184 -4.28515625 7.59765625 C-4.28773438 6.41171875 -4.2903125 5.22578125 -4.29296875 4.00390625 C-4.10800919 -0.04344422 -4.09186436 0.12644822 0 0 Z " fill="#254091" transform="translate(431.16015625,371.90234375)"/>
</svg>
