<?xml version="1.0" encoding="UTF-8"?>
<svg version="1.1" xmlns="http://www.w3.org/2000/svg" width="1200" height="800">
<path d="M0 0 C396 0 792 0 1200 0 C1200 264 1200 528 1200 800 C804 800 408 800 0 800 C0 536 0 272 0 0 Z " fill="#FEFEFE" transform="translate(0,0)"/>
<path d="M0 0 C7.67329933 5.86754266 14.04980447 12.66983225 19 21 C19.68835938 22.14855469 19.68835938 22.14855469 20.390625 23.3203125 C28.07522178 37.34701626 30.39261504 53.98946979 27 69.625 C26.67 70.73875 26.34 71.8525 26 73 C24 70 24 70 22.6875 66.625 C21.23793362 62.9508536 21.23793362 62.9508536 18.5625 60.625 C16.09197189 58.0942151 15.32517238 56.68824776 14.0625 53.5 C12.20100925 48.89606608 9.92760416 46.94570312 6 44 C6 43.34 6 42.68 6 42 C5.45472656 41.90203125 4.90945313 41.8040625 4.34765625 41.703125 C-0.62110601 40.71786616 -4.92917133 39.25920841 -9.515625 37.13232422 C-18.94056166 32.83664259 -26.67173162 31.41260129 -37.0625 31.625 C-38.86557617 31.62693359 -38.86557617 31.62693359 -40.70507812 31.62890625 C-47.69075028 31.69750532 -54.21745417 32.30460741 -61 34 C-61 34.66 -61 35.32 -61 36 C-61.68707031 36.18175781 -62.37414062 36.36351562 -63.08203125 36.55078125 C-63.98308594 36.80214844 -64.88414062 37.05351562 -65.8125 37.3125 C-66.70582031 37.55613281 -67.59914063 37.79976563 -68.51953125 38.05078125 C-71.09604219 39.03675315 -72.1981188 39.9695616 -74 42 C-76.41938064 43.59169779 -78.58098487 44.86591516 -81.34375 45.75 C-84.80043584 47.37667569 -86.62777056 49.56224959 -89.125 52.4375 C-93.99304269 57.99357912 -93.99304269 57.99357912 -95.671875 59.54296875 C-97.43552901 61.47780094 -98.18477543 63.43930014 -99.125 65.875 C-99.45757812 66.71804688 -99.79015625 67.56109375 -100.1328125 68.4296875 C-100.98077444 70.94301613 -101.54163983 73.39015331 -102 76 C-108.01089535 66.98365698 -107.15494531 53.3056221 -105.3828125 42.94140625 C-101.82417032 25.52334701 -92.40446098 10.74187196 -78.125 0.125 C-53.48711993 -15.83318457 -24.49206854 -16.56724636 0 0 Z " fill="#028CD0" transform="translate(410,346)"/>
<path d="M0 0 C2.43757413 -0.02698422 4.87484915 -0.04683099 7.3125 -0.0625 C8.00279297 -0.07087891 8.69308594 -0.07925781 9.40429688 -0.08789062 C12.5483025 -0.10307906 14.99420019 -0.00193327 18 1 C19.18778147 3.37556294 19.12324578 4.80424159 19.12025452 7.45449829 C19.12231651 8.85957893 19.12231651 8.85957893 19.12442017 10.29304504 C19.11902725 11.83915718 19.11902725 11.83915718 19.11352539 13.41650391 C19.11367142 14.49944229 19.11381744 15.58238068 19.1139679 16.69813538 C19.11326915 20.29096453 19.10547852 23.88374236 19.09765625 27.4765625 C19.09579193 29.96235119 19.0943681 32.44814025 19.09336853 34.93392944 C19.08993565 40.81646397 19.08204773 46.69897943 19.07201904 52.58150613 C19.05975492 59.93454246 19.05437626 67.28758107 19.04882812 74.640625 C19.03809268 87.76042637 19.02101751 100.88021135 19 114 C13.39 114 7.78 114 2 114 C1.67 102.78 1.34 91.56 1 80 C-2.465 80.99 -2.465 80.99 -6 82 C-8.89614868 82.26069641 -8.89614868 82.26069641 -11.76416016 82.2746582 C-12.84863434 82.28419022 -13.93310852 82.29372223 -15.05044556 82.30354309 C-16.20168915 82.30263168 -17.35293274 82.30172028 -18.5390625 82.30078125 C-20.33759171 82.30720894 -20.33759171 82.30720894 -22.17245483 82.31376648 C-24.69894785 82.31949351 -27.22545736 82.32002208 -29.75195312 82.31567383 C-33.61877391 82.3125051 -37.4848357 82.33602489 -41.3515625 82.36132812 C-43.80989487 82.36360037 -46.26822929 82.36430496 -48.7265625 82.36328125 C-49.88185455 82.372491 -51.03714661 82.38170074 -52.22744751 82.39118958 C-53.8447023 82.38184639 -53.8447023 82.38184639 -55.49462891 82.37231445 C-56.43948151 82.37294388 -57.38433411 82.3735733 -58.3578186 82.3742218 C-61.55247561 81.92175086 -63.40466429 80.89364258 -66 79 C-68.00667234 75.98999148 -68.25491971 75.36507544 -68.31884766 71.98754883 C-68.33871735 71.18694534 -68.35858704 70.38634186 -68.37905884 69.56147766 C-68.39638565 68.27227669 -68.39638565 68.27227669 -68.4140625 66.95703125 C-68.43342865 66.0734343 -68.4527948 65.18983734 -68.4727478 64.27946472 C-68.53252805 61.45724134 -68.57892266 58.63497714 -68.625 55.8125 C-68.66318122 53.89907075 -68.70223304 51.98565867 -68.7421875 50.07226562 C-68.83986731 45.3815997 -68.91944761 40.6911166 -69 36 C-56.46 36 -43.92 36 -31 36 C-31 28.74 -31 21.48 -31 14 C-43.21 14 -55.42 14 -68 14 C-68 10.7 -68 7.4 -68 4 C-60.47029868 3.97535968 -52.94062061 3.95716859 -45.41088867 3.94506836 C-42.84708243 3.9400263 -40.28327909 3.93319286 -37.71948242 3.92456055 C-34.04344979 3.91248936 -30.36745502 3.90677058 -26.69140625 3.90234375 C-25.53725723 3.89718246 -24.38310822 3.89202118 -23.19398499 3.88670349 C-21.6024485 3.88659019 -21.6024485 3.88659019 -19.97875977 3.88647461 C-19.03944107 3.884254 -18.10012238 3.88203339 -17.13233948 3.87974548 C-15 4 -15 4 -14 5 C-13.88646984 7.93365746 -13.83581292 10.84288462 -13.83203125 13.77734375 C-13.82703865 15.099869 -13.82703865 15.099869 -13.82194519 16.44911194 C-13.81687217 18.31787594 -13.81453698 20.18664904 -13.81469727 22.05541992 C-13.81251192 24.92186344 -13.79436345 27.7879216 -13.77539062 30.65429688 C-13.77245661 32.46614451 -13.77047187 34.27799398 -13.76953125 36.08984375 C-13.76234573 36.9513353 -13.75516022 37.81282684 -13.74775696 38.70042419 C-13.7711784 44.7711784 -13.7711784 44.7711784 -16 47 C-18.58103306 47.17502995 -21.05308163 47.23162279 -23.6328125 47.1953125 C-24.76056595 47.19106766 -24.76056595 47.19106766 -25.91110229 47.18673706 C-28.31589578 47.17552874 -30.72031881 47.15042352 -33.125 47.125 C-34.75390088 47.11497102 -36.38280758 47.10584503 -38.01171875 47.09765625 C-42.00807055 47.07728748 -46.0036199 47.03814149 -50 47 C-50 54.92 -50 62.84 -50 71 C-43.84289745 70.92591038 -37.68722347 70.84299738 -31.53076172 70.73754883 C-29.43773876 70.70435451 -27.34462747 70.67630555 -25.25146484 70.65356445 C-22.23757388 70.61991769 -19.22448837 70.56759607 -16.2109375 70.51171875 C-15.27945892 70.50532883 -14.34798035 70.4989389 -13.38827515 70.49235535 C-8.21099287 70.37596169 -4.46022771 69.93081428 0 67 C1.35559517 64.28880966 1.12717489 62.16439891 1.12939453 59.12915039 C1.13412277 57.28197166 1.13412277 57.28197166 1.13894653 55.3974762 C1.13715649 54.04753585 1.13510548 52.69759583 1.1328125 51.34765625 C1.13348594 49.96764611 1.13445631 48.58763608 1.13571167 47.20762634 C1.13718723 44.31329216 1.13503895 41.41898881 1.13037109 38.5246582 C1.12467921 34.81446656 1.12795025 31.10434734 1.13394356 27.39415836 C1.13755753 24.5434464 1.13640664 21.69275159 1.13381577 18.84203911 C1.13314854 17.47409494 1.13396781 16.10614921 1.13629532 14.73820686 C1.13883489 12.82555293 1.13427786 10.91289353 1.12939453 9.00024414 C1.12859894 7.91151505 1.12780334 6.82278595 1.12698364 5.70106506 C1.11776547 2.90108277 1.11776547 2.90108277 0 0 Z " fill="#036AAD" transform="translate(645,343)"/>
<path d="M0 0 C0.71961914 0.01401855 1.43923828 0.02803711 2.18066406 0.04248047 C18.66300105 0.44237709 34.46796437 4.77266663 50 10 C48.4590017 20.5967414 39.87780386 29.34861441 32 36 C16.61240731 47.40562787 -2.07547063 52.40939481 -21.109375 49.69970703 C-39.72758651 46.10342356 -55.18353103 35.80746316 -65.8984375 20.2421875 C-70 13.63732394 -70 13.63732394 -70 10 C-47.93700303 0.67900353 -23.61071937 -0.56089812 0 0 Z " fill="#0284CB" transform="translate(381,417)"/>
<path d="M0 0 C1.18142578 -0.02835937 2.36285156 -0.05671875 3.58007812 -0.0859375 C12.38126573 -0.10522777 19.21200947 1.86739927 27.1875 5.5 C31.02475661 7.17101145 34.7950902 8.68953481 38.8125 9.875 C43.01350935 11.24442919 45.32227544 13.06173053 48.1875 16.5 C49.239375 17.675625 49.239375 17.675625 50.3125 18.875 C53.09890596 22.77596834 54.67917937 26.97503812 56.1875 31.5 C56.826875 31.768125 57.46625 32.03625 58.125 32.3125 C60.1875 33.5 60.1875 33.5 61.4375 36.1875 C62.97610785 42.98301799 62.17593457 47.39861275 59.1875 53.5 C58.8575 52.51 58.5275 51.52 58.1875 50.5 C55.86390896 49.68519408 53.70481239 49.08906338 51.3125 48.5625 C50.60359619 48.3977417 49.89469238 48.2329834 49.16430664 48.06323242 C47.63626764 47.71198772 46.106641 47.36759474 44.57568359 47.02929688 C42.18815213 46.50014453 39.80724328 45.94638073 37.42578125 45.390625 C27.67830846 43.16697656 18.20854831 41.7176025 8.1875 41.5 C7.3526709 41.47421875 6.5178418 41.4484375 5.65771484 41.421875 C-16.26698174 40.79668315 -36.63443831 44.03124758 -57.8125 49.5 C-58.53872559 49.62552246 -59.26495117 49.75104492 -60.01318359 49.88037109 C-60.60695801 50.08484863 -61.20073242 50.28932617 -61.8125 50.5 C-62.1425 51.49 -62.4725 52.48 -62.8125 53.5 C-65.41525063 48.29449875 -65.64513858 43.45249138 -64.08984375 37.9375 C-62.11913363 32.57589191 -59.971192 29.48211504 -55.8125 25.5 C-53.29533583 22.6563911 -50.79866438 19.79652419 -48.3125 16.92578125 C-44.95523382 13.66818391 -41.97437928 12.83515748 -37.5625 11.5625 C-36.655 11.211875 -35.7475 10.86125 -34.8125 10.5 C-34.4825 9.51 -34.1525 8.52 -33.8125 7.5 C-30.5125 6.84 -27.2125 6.18 -23.8125 5.5 C-23.8125 4.84 -23.8125 4.18 -23.8125 3.5 C-15.84532857 0.51016777 -8.46080583 -0.01828375 0 0 Z " fill="#FCFEFE" transform="translate(372.8125,376.5)"/>
<path d="M0 0 C6.39789735 4.94953199 10.24749196 11.91645945 11.54296875 19.84765625 C12.03209874 27.17173424 9.01044791 32.90160218 4.72265625 38.671875 C-1.09584895 45.14638814 -10.25953619 50.11891372 -19 50.88818359 C-40.04041488 51.60310708 -40.04041488 51.60310708 -49.80859375 45.6953125 C-50.93974609 45.02628906 -50.93974609 45.02628906 -52.09375 44.34375 C-57.66409733 40.61630263 -62.30868327 35.21344776 -64.4453125 28.77734375 C-65.75884777 21.24923299 -65.7073321 14.31850683 -61.47265625 7.7890625 C-46.0055417 -11.67190792 -20.1107277 -12.84762379 0 0 Z " fill="#056AAD" transform="translate(538.80859375,349.3046875)"/>
<path d="M0 0 C5.28 0 10.56 0 16 0 C19 3 19 3 19.34057617 6.36987305 C19.34010247 7.7505794 19.32322783 9.13134393 19.29296875 10.51171875 C19.28872391 11.23994339 19.28447906 11.96816803 19.28010559 12.71846008 C19.26332733 15.04185127 19.22567855 17.3643715 19.1875 19.6875 C19.17245197 21.26365934 19.15876377 22.83983229 19.14648438 24.41601562 C19.11597938 28.27794833 19.05726193 32.13800063 19 36 C24.28 36 29.56 36 35 36 C35 39.63 35 43.26 35 47 C29.72 47 24.44 47 19 47 C19 69.11 19 91.22 19 114 C13.06 114 7.12 114 1 114 C0.67 76.38 0.34 38.76 0 0 Z " fill="#0A6EAF" transform="translate(754,343)"/>
<path d="M0 0 C7.28421548 -0.02312916 14.5684231 -0.04091801 21.85266781 -0.05181217 C25.23471813 -0.05703975 28.6167434 -0.06413511 31.9987793 -0.07543945 C35.88329777 -0.08834267 39.76780597 -0.09322924 43.65234375 -0.09765625 C44.87211411 -0.10281754 46.09188446 -0.10797882 47.34861755 -0.11329651 C49.03024742 -0.11340981 49.03024742 -0.11340981 50.74584961 -0.11352539 C51.73846298 -0.115746 52.73107635 -0.11796661 53.75376892 -0.12025452 C56 0 56 0 57 1 C58.27679939 22.08203639 52.42387473 40.0410421 38.5 55.8359375 C29.79069566 65.07691449 19.82127979 70.91083274 8.375 76.0625 C7.34403198 76.52994629 7.34403198 76.52994629 6.29223633 77.00683594 C1.3688043 79.12293477 1.3688043 79.12293477 -2 78 C-5 73.66666667 -5 73.66666667 -5 71 C-2.77304251 69.6157573 -0.54169715 68.33099968 1.75 67.0625 C13.19035983 60.45686014 20.81169697 52.52781818 29 42 C19.43 41.67 9.86 41.34 0 41 C0 37.37 0 33.74 0 30 C11.55 30 23.1 30 35 30 C36.32 23.4 37.64 16.8 39 10 C26.13 10 13.26 10 0 10 C0 6.7 0 3.4 0 0 Z " fill="#046AAD" transform="translate(685,347)"/>
<path d="M0 0 C26.73 0 53.46 0 81 0 C81 3.3 81 6.6 81 10 C60.54 10 40.08 10 19 10 C19.33 21.55 19.66 33.1 20 45 C50.195 45.495 50.195 45.495 81 46 C81 49.3 81 52.6 81 56 C71.58571037 56.11598358 62.17166766 56.20476032 52.75681877 56.25906086 C48.38482251 56.28512603 44.01331598 56.32046689 39.64160156 56.37719727 C35.42053559 56.43162831 31.19993987 56.46144371 26.97854996 56.47438622 C25.37018559 56.48360633 23.76184621 56.5016116 22.15368271 56.52865028 C19.89600293 56.56509091 17.640252 56.5699395 15.38232422 56.56762695 C14.09881073 56.57873001 12.81529724 56.58983307 11.4928894 56.60127258 C6.81084528 55.79529666 5.23730674 54.45392822 2 51 C1.24723816 48.68603516 1.24723816 48.68603516 1.24291992 46.2890625 C1.22658005 45.38462402 1.21024017 44.48018555 1.19340515 43.54833984 C1.20563614 42.5836377 1.21786713 41.61893555 1.23046875 40.625 C1.21913406 39.62291504 1.20779938 38.62083008 1.19612122 37.58837891 C1.16542604 34.39172471 1.17523071 31.19675146 1.1875 28 C1.17330853 24.80379246 1.15087745 21.60775641 1.12532043 18.41162109 C1.11233308 16.42500483 1.10751731 14.43831412 1.11186218 12.45166016 C1.11128311 11.54722168 1.11070404 10.6427832 1.11010742 9.7109375 C1.11266037 8.91993652 1.11521332 8.12893555 1.11784363 7.31396484 C1.03250859 4.52992496 1.03250859 4.52992496 0 0 Z " fill="#0168AC" transform="translate(805,350)"/>
<path d="M0 0 C34.98 0 69.96 0 106 0 C106 3.3 106 6.6 106 10 C91.15 10 76.3 10 61 10 C61 22.54 61 35.08 61 48 C55.39 48 49.78 48 44 48 C44 35.46 44 22.92 44 10 C29.48 10 14.96 10 0 10 C0 6.7 0 3.4 0 0 Z " fill="#0269AC" transform="translate(459,410)"/>
<path d="M0 0 C4.62283511 2.65384979 8.30472435 6.6719487 10.6875 11.4375 C11.41298568 18.60910434 11.07068689 23.63273898 6.6875 29.4375 C2.05905796 33.94084901 -3.26927899 36.55152167 -9.75 36.875 C-15.70152097 36.62238875 -20.04779615 34.61459442 -24.33203125 30.49609375 C-28.91825488 25.42416008 -30.75312608 21.73444858 -30.65234375 14.84765625 C-29.94908816 9.86019997 -27.25121529 6.14713296 -23.52734375 2.86328125 C-16.61706666 -2.25707269 -8.01282359 -3.61969251 0 0 Z " fill="#FAFCFD" transform="translate(521.3125,353.5625)"/>
<path d="M0 0 C34.65 0 69.3 0 105 0 C105 3.3 105 6.6 105 10 C70.35 10 35.7 10 0 10 C0 6.7 0 3.4 0 0 Z " fill="#0068AB" transform="translate(794,434)"/>
<path d="M0 0 C1.18142578 -0.02835937 2.36285156 -0.05671875 3.58007812 -0.0859375 C12.38126573 -0.10522777 19.21200947 1.86739927 27.1875 5.5 C31.02475661 7.17101145 34.7950902 8.68953481 38.8125 9.875 C43.01350935 11.24442919 45.32227544 13.06173053 48.1875 16.5 C49.239375 17.675625 49.239375 17.675625 50.3125 18.875 C53.09890596 22.77596834 54.67917937 26.97503812 56.1875 31.5 C56.826875 31.768125 57.46625 32.03625 58.125 32.3125 C60.1875 33.5 60.1875 33.5 61.4375 36.1875 C62.97610785 42.98301799 62.17593457 47.39861275 59.1875 53.5 C58.1875 50.5 58.1875 50.5 57.75 47.0625 C57.39819885 43.66952781 57.39819885 43.66952781 56.1875 41.5 C55.1875 39.5 55.1875 39.5 54.875 36.1875 C53.89970433 30.95636868 51.69399651 27.26440748 47.30078125 24.171875 C45.63440764 23.21193564 43.91428456 22.34646302 42.1875 21.5 C42.1875 20.84 42.1875 20.18 42.1875 19.5 C41.1975 19.5 40.2075 19.5 39.1875 19.5 C38.6925 18.015 38.6925 18.015 38.1875 16.5 C36.46355907 15.61188414 36.46355907 15.61188414 34.3125 15.0625 C29.77333578 13.69641395 25.38048793 12.07926559 20.9609375 10.3671875 C3.49242958 4.90520333 -19.73178545 7.16944442 -35.92700195 15.60083008 C-40.76105179 18.48614449 -44.90302586 21.97130128 -49 25.8125 C-49.58974609 26.34294922 -50.17949219 26.87339844 -50.78710938 27.41992188 C-56.11768482 32.37101253 -60.26862145 38.05488429 -62.625 45 C-63.016875 46.155 -63.40875 47.31 -63.8125 48.5 C-64.1425 48.5 -64.4725 48.5 -64.8125 48.5 C-65.3087404 41.80075454 -64.16218911 36.38355135 -60.8125 30.5 C-59.18581089 28.79429249 -57.51491683 27.13013266 -55.8125 25.5 C-53.29533583 22.6563911 -50.79866438 19.79652419 -48.3125 16.92578125 C-44.95523382 13.66818391 -41.97437928 12.83515748 -37.5625 11.5625 C-36.655 11.211875 -35.7475 10.86125 -34.8125 10.5 C-34.4825 9.51 -34.1525 8.52 -33.8125 7.5 C-30.5125 6.84 -27.2125 6.18 -23.8125 5.5 C-23.8125 4.84 -23.8125 4.18 -23.8125 3.5 C-15.84532857 0.51016777 -8.46080583 -0.01828375 0 0 Z " fill="#9ADBF8" transform="translate(372.8125,376.5)"/>
<path d="M0 0 C1.30534606 0.37968665 2.61907918 0.73105343 3.9375 1.0625 C13.05688952 4.00807769 20.65780689 10.92797493 26.59765625 18.2734375 C27.96910577 20.03193532 27.96910577 20.03193532 29.609375 21.55859375 C31.45566217 23.47230152 32.12722785 25.51595618 33 28 C33.66 28 34.32 28 35 28 C35.53293835 29.74635165 36.05090663 31.49727652 36.5625 33.25 C36.85253906 34.22453125 37.14257812 35.1990625 37.44140625 36.203125 C37.99249836 38.96243932 37.93789609 40.3912824 37 43 C36.76925781 42.33613281 36.53851563 41.67226563 36.30078125 40.98828125 C34.24219548 35.41463994 32.28331762 32.17623468 28 28 C27.30579993 26.52176221 26.66343478 25.01854473 26.0625 23.5 C24.20100925 18.89606608 21.92760416 16.94570312 18 14 C18 13.34 18 12.68 18 12 C17.45472656 11.90203125 16.90945313 11.8040625 16.34765625 11.703125 C11.37889399 10.71786616 7.07082867 9.25920841 2.484375 7.13232422 C-6.94056166 2.83664259 -14.67173162 1.41260129 -25.0625 1.625 C-26.86557617 1.62693359 -26.86557617 1.62693359 -28.70507812 1.62890625 C-35.69075028 1.69750532 -42.21745417 2.30460741 -49 4 C-49 4.66 -49 5.32 -49 6 C-49.68707031 6.18175781 -50.37414062 6.36351562 -51.08203125 6.55078125 C-52.43361328 6.92783203 -52.43361328 6.92783203 -53.8125 7.3125 C-54.70582031 7.55613281 -55.59914063 7.79976563 -56.51953125 8.05078125 C-59.09604219 9.03675315 -60.1981188 9.9695616 -62 12 C-64.41938064 13.59169779 -66.58098487 14.86591516 -69.34375 15.75 C-72.80043584 17.37667569 -74.62777056 19.56224959 -77.125 22.4375 C-81.99304269 27.99357912 -81.99304269 27.99357912 -83.671875 29.54296875 C-85.43552901 31.47780094 -86.18477543 33.43930014 -87.125 35.875 C-87.45757812 36.71804688 -87.79015625 37.56109375 -88.1328125 38.4296875 C-88.98077444 40.94301613 -89.54163983 43.39015331 -90 46 C-95.53658298 37.69512553 -94.21392885 26.57925839 -94 17 C-93.67 17 -93.34 17 -93 17 C-92.67 21.29 -92.34 25.58 -92 30 C-91.46632813 29.14148438 -90.93265625 28.28296875 -90.3828125 27.3984375 C-87.93555808 23.73079013 -85.00668054 20.71096257 -81.875 17.625 C-81.33746094 17.07972656 -80.79992187 16.53445313 -80.24609375 15.97265625 C-76.25352444 12 -76.25352444 12 -74 12 C-73.34 11.34 -72.68 10.68 -72 10 C-71.34 9.34 -70.68 8.68 -70 8 C-69.34 8 -68.68 8 -68 8 C-67.67 7.01 -67.34 6.02 -67 5 C-64.7265625 3.9609375 -64.7265625 3.9609375 -62 3 C-60.89785156 2.43152344 -60.89785156 2.43152344 -59.7734375 1.8515625 C-43.07401653 -6.68853226 -16.59732725 -11.06488483 0 0 Z " fill="#12B7EC" transform="translate(398,376)"/>
<path d="M0 0 C1.16015625 0.4228125 2.3203125 0.845625 3.515625 1.28125 C6.27523084 2.32110147 9.01772637 3.39065582 11.75 4.5 C11.75 5.49 11.75 6.48 11.75 7.5 C12.74 7.5 13.73 7.5 14.75 7.5 C14.75 8.16 14.75 8.82 14.75 9.5 C15.28625 9.561875 15.8225 9.62375 16.375 9.6875 C20.8888376 11.2317076 23.92136235 14.37732964 26.6875 18.125 C27.75 20.5 27.75 20.5 26.75 23.5 C26.09 22.79875 25.43 22.0975 24.75 21.375 C21.87890844 18.47081229 18.6623209 16.17055383 15.32421875 13.83203125 C14.80472656 13.39246094 14.28523438 12.95289063 13.75 12.5 C13.75 11.84 13.75 11.18 13.75 10.5 C9.46358052 8.76203655 5.14282451 7.12437428 0.8125 5.5 C0.12220703 5.23960937 -0.56808594 4.97921875 -1.27929688 4.7109375 C-2.64458294 4.19846993 -4.01242493 3.69275697 -5.3828125 3.1940918 C-6.93719136 2.61628072 -8.47008476 1.98107348 -9.99609375 1.33203125 C-15.09342718 0.02863147 -20.13580533 0.17198106 -25.375 0.1875 C-26.43976563 0.17138672 -27.50453125 0.15527344 -28.6015625 0.13867188 C-36.23706508 0.13403868 -42.93416225 1.38579624 -50.25 3.5 C-52.04630859 3.93892578 -52.04630859 3.93892578 -53.87890625 4.38671875 C-66.3834078 7.80006471 -77.30386756 15.79065403 -84.0625 26.9375 C-84.62904297 27.95650391 -84.62904297 27.95650391 -85.20703125 28.99609375 C-85.55121094 29.49238281 -85.89539063 29.98867188 -86.25 30.5 C-86.91 30.5 -87.57 30.5 -88.25 30.5 C-88.58 32.81 -88.91 35.12 -89.25 37.5 C-88.59 37.83 -87.93 38.16 -87.25 38.5 C-87.91 38.5 -88.57 38.5 -89.25 38.5 C-89.58 39.49 -89.91 40.48 -90.25 41.5 C-91.66579753 36.07277614 -91.12873889 32.38351635 -88.875 27.25 C-85.53542797 21.59841657 -80.89133592 17.08307648 -76.25 12.5 C-75.54230469 11.79359375 -74.83460938 11.0871875 -74.10546875 10.359375 C-54.99487061 -7.5446477 -23.43222472 -8.61633375 0 0 Z " fill="#CBEBFC" transform="translate(400.25,388.5)"/>
<path d="M0 0 C35.00966421 -0.55645633 35.00966421 -0.55645633 41 5 C41 5.66 41 6.32 41 7 C41.85851562 7.12246094 42.71703125 7.24492187 43.6015625 7.37109375 C53.77249359 9.25330054 61.41563372 13.01747199 68 21 C69.175625 22.3303125 69.175625 22.3303125 70.375 23.6875 C72.03615331 26.05144894 73.06527087 28.27370671 74 31 C74.66 31 75.32 31 76 31 C76.53293835 32.74635165 77.05090663 34.49727652 77.5625 36.25 C77.85253906 37.22453125 78.14257812 38.1990625 78.44140625 39.203125 C78.99249836 41.96243932 78.93789609 43.3912824 78 46 C77.76925781 45.33613281 77.53851563 44.67226563 77.30078125 43.98828125 C75.24219548 38.41463994 73.28331762 35.17623468 69 31 C68.30579993 29.52176221 67.66343478 28.01854473 67.0625 26.5 C65.20100925 21.89606608 62.92760416 19.94570312 59 17 C59 16.34 59 15.68 59 15 C58.45472656 14.90203125 57.90945313 14.8040625 57.34765625 14.703125 C52.37889399 13.71786616 48.07082867 12.25920841 43.484375 10.13232422 C34.05943834 5.83664259 26.32826838 4.41260129 15.9375 4.625 C14.13442383 4.62693359 14.13442383 4.62693359 12.29492188 4.62890625 C5.30924972 4.69750532 -1.21745417 5.30460741 -8 7 C-8 7.66 -8 8.32 -8 9 C-8.68707031 9.18175781 -9.37414062 9.36351562 -10.08203125 9.55078125 C-11.43361328 9.92783203 -11.43361328 9.92783203 -12.8125 10.3125 C-14.15248047 10.67794922 -14.15248047 10.67794922 -15.51953125 11.05078125 C-18.09604219 12.03675315 -19.1981188 12.9695616 -21 15 C-23.41624743 16.58963646 -25.56989262 17.86383535 -28.33203125 18.73828125 C-31.77316349 20.36563954 -33.8817643 22.78734114 -36.3125 25.625 C-36.76689453 26.140625 -37.22128906 26.65625 -37.68945312 27.1875 C-38.80108006 28.4512443 -39.9016822 29.72467176 -41 31 C-41 26.79592296 -39.18731209 25.61954132 -36.375 22.5625 C-35.51648438 21.61503906 -34.65796875 20.66757812 -33.7734375 19.69140625 C-31.0268682 17.02607351 -28.19613975 15.08344353 -25 13 C-24.67 12.34 -24.34 11.68 -24 11 C-21.5516868 9.87225669 -19.13317502 8.84936539 -16.625 7.875 C-15.93921875 7.59785156 -15.2534375 7.32070313 -14.546875 7.03515625 C-11.55850791 5.85492567 -9.24102363 5 -6 5 C-6 4.34 -6 3.68 -6 3 C-4.02 2.67 -2.04 2.34 0 2 C0 1.34 0 0.68 0 0 Z " fill="#1FBEF0" transform="translate(357,373)"/>
<path d="M0 0 C1.18142578 -0.02835937 2.36285156 -0.05671875 3.58007812 -0.0859375 C12.38126573 -0.10522777 19.21200947 1.86739927 27.1875 5.5 C31.02475661 7.17101145 34.7950902 8.68953481 38.8125 9.875 C45.06905974 11.91448976 48.26790596 16.41904477 52.1875 21.5 C51.8575 22.16 51.5275 22.82 51.1875 23.5 C50.1975 22.38625 50.1975 22.38625 49.1875 21.25 C46.01229426 18.03819246 42.27433153 16.31524279 38.1875 14.5 C38.1875 13.84 38.1875 13.18 38.1875 12.5 C37.50945312 12.32984375 36.83140625 12.1596875 36.1328125 11.984375 C30.42859908 10.49906735 25.05980619 8.76388793 19.671875 6.3671875 C13.42478897 4.18660087 6.90855457 4.33809074 0.375 4.375 C-0.51356689 4.37983398 -1.40213379 4.38466797 -2.31762695 4.38964844 C-14.80436381 4.46790316 -14.80436381 4.46790316 -26.51171875 8.3984375 C-29.00147765 9.59047826 -31.5288351 10.5024245 -34.125 11.4375 C-38.2984778 13.07340025 -40.23033792 14.77021033 -42.8125 18.5 C-44.46925865 19.51633093 -46.13726389 20.51442314 -47.8125 21.5 C-57.56227539 28.87911082 -62.12359914 36.42561924 -63.8125 48.5 C-64.1425 48.5 -64.4725 48.5 -64.8125 48.5 C-65.3087404 41.80075454 -64.16218911 36.38355135 -60.8125 30.5 C-59.18581089 28.79429249 -57.51491683 27.13013266 -55.8125 25.5 C-53.29533583 22.6563911 -50.79866438 19.79652419 -48.3125 16.92578125 C-44.95523382 13.66818391 -41.97437928 12.83515748 -37.5625 11.5625 C-36.655 11.211875 -35.7475 10.86125 -34.8125 10.5 C-34.4825 9.51 -34.1525 8.52 -33.8125 7.5 C-30.5125 6.84 -27.2125 6.18 -23.8125 5.5 C-23.8125 4.84 -23.8125 4.18 -23.8125 3.5 C-15.84532857 0.51016777 -8.46080583 -0.01828375 0 0 Z " fill="#68CEF5" transform="translate(372.8125,376.5)"/>
<path d="M0 0 C1.05445313 0.39703125 2.10890625 0.7940625 3.1953125 1.203125 C8.86716592 3.36252944 13.17467146 5.21833933 17 10 C15.25 10.6875 15.25 10.6875 13 11 C12.4328125 10.566875 11.865625 10.13375 11.28125 9.6875 C8.43349955 7.58094487 5.56738171 6.53993123 2.25 5.3125 C1.07953125 4.87550781 -0.0909375 4.43851562 -1.296875 3.98828125 C-2.18890625 3.66214844 -3.0809375 3.33601563 -4 3 C-4 2.34 -4 1.68 -4 1 C-20.02860006 -0.19361915 -35.25596487 -1.07995895 -51 3 C-51.6492041 3.16628906 -52.2984082 3.33257812 -52.96728516 3.50390625 C-61.93317585 5.88014231 -68.64794379 9.06265948 -75 16 C-75.66 15.67 -76.32 15.34 -77 15 C-58.00273355 -3.21868995 -24.72416082 -11.57301145 0 0 Z " fill="#DBF1FC" transform="translate(399,392)"/>
<path d="M0 0 C1.16015625 0.4228125 2.3203125 0.845625 3.515625 1.28125 C6.27523084 2.32110147 9.01772637 3.39065582 11.75 4.5 C11.75 5.49 11.75 6.48 11.75 7.5 C12.74 7.5 13.73 7.5 14.75 7.5 C14.75 8.16 14.75 8.82 14.75 9.5 C15.28625 9.561875 15.8225 9.62375 16.375 9.6875 C20.8888376 11.2317076 23.92136235 14.37732964 26.6875 18.125 C27.75 20.5 27.75 20.5 26.75 23.5 C26.09 22.79875 25.43 22.0975 24.75 21.375 C21.87890844 18.47081229 18.6623209 16.17055383 15.32421875 13.83203125 C14.80472656 13.39246094 14.28523438 12.95289063 13.75 12.5 C13.75 11.84 13.75 11.18 13.75 10.5 C12.76 10.17 11.77 9.84 10.75 9.5 C10.14285156 8.87351562 9.53570312 8.24703125 8.91015625 7.6015625 C-0.32276903 -1.38092177 -15.69882391 -1.82505893 -27.8203125 -1.80932617 C-42.0135565 -1.84668927 -42.0135565 -1.84668927 -54.25 3.5 C-56.37284396 4.27451297 -58.52367875 4.97368257 -60.6875 5.625 C-61.84121094 5.97820312 -62.99492187 6.33140625 -64.18359375 6.6953125 C-67.25 7.5 -67.25 7.5 -70.25 7.5 C-54.50003619 -9.55041954 -19.58114055 -7.20024002 0 0 Z " fill="#B0E2FA" transform="translate(400.25,388.5)"/>
<path d="M0 0 C1.58467728 0.28427417 3.1677057 0.57774818 4.75 0.875 C6.07257813 1.11863281 6.07257813 1.11863281 7.421875 1.3671875 C9.89733667 1.97480082 11.82641115 2.67822299 14 4 C14.33 4.66 14.66 5.32 15 6 C16.20731771 6.607981 17.44162487 7.1630459 18.6875 7.6875 C23.32855298 9.9082189 25.95863326 12.93536968 29 17 C29.61875 17.763125 30.2375 18.52625 30.875 19.3125 C32 21 32 21 32 23 C32.928125 23.309375 32.928125 23.309375 33.875 23.625 C36.9504151 25.61497447 37.20217345 27.47626605 38 31 C38.51085347 36.61938817 37.42081619 40.05750028 35 45 C34 42 34 42 33.5625 38.5625 C33.21069885 35.16952781 33.21069885 35.16952781 32 33 C31 31 31 31 30.6875 27.6875 C29.71220433 22.45636868 27.50649651 18.76440748 23.11328125 15.671875 C21.44690764 14.71193564 19.72678456 13.84646302 18 13 C18 12.34 18 11.68 18 11 C17.01 11 16.02 11 15 11 C14.67 10.01 14.34 9.02 14 8 C13.34 7.67 12.68 7.34 12 7 C12 6.34 12 5.68 12 5 C11.38511719 4.86722656 10.77023437 4.73445313 10.13671875 4.59765625 C9.32847656 4.42105469 8.52023437 4.24445313 7.6875 4.0625 C6.88699219 3.88847656 6.08648437 3.71445312 5.26171875 3.53515625 C3 3 3 3 0 2 C0 1.34 0 0.68 0 0 Z " fill="#7FD3F6" transform="translate(397,385)"/>
<path d="M0 0 C1.3921875 -0.00580078 1.3921875 -0.00580078 2.8125 -0.01171875 C3.71226562 -0.01042969 4.61203125 -0.00914062 5.5390625 -0.0078125 C6.34811035 -0.00668457 7.1571582 -0.00555664 7.99072266 -0.00439453 C10.53056638 0.13344257 12.89553141 0.5702733 15.375 1.125 C15.375 1.455 15.375 1.785 15.375 2.125 C14.22668701 2.154729 14.22668701 2.154729 13.05517578 2.18505859 C9.53647896 2.28119205 6.01830552 2.39050916 2.5 2.5 C1.29601562 2.5309375 0.09203125 2.561875 -1.1484375 2.59375 C-8.17126028 2.82275509 -14.79450064 3.44646839 -21.625 5.125 C-21.625 5.785 -21.625 6.445 -21.625 7.125 C-22.31207031 7.30675781 -22.99914062 7.48851562 -23.70703125 7.67578125 C-25.05861328 8.05283203 -25.05861328 8.05283203 -26.4375 8.4375 C-27.77748047 8.80294922 -27.77748047 8.80294922 -29.14453125 9.17578125 C-31.72104219 10.16175315 -32.8231188 11.0945616 -34.625 13.125 C-37.04124743 14.71463646 -39.19489262 15.98883535 -41.95703125 16.86328125 C-45.39816349 18.49063954 -47.5067643 20.91234114 -49.9375 23.75 C-50.39189453 24.265625 -50.84628906 24.78125 -51.31445312 25.3125 C-52.42608006 26.5762443 -53.5266822 27.84967176 -54.625 29.125 C-54.625 24.92092296 -52.81231209 23.74454132 -50 20.6875 C-49.14148438 19.74003906 -48.28296875 18.79257812 -47.3984375 17.81640625 C-44.6518682 15.15107351 -41.82113975 13.20844353 -38.625 11.125 C-38.295 10.465 -37.965 9.805 -37.625 9.125 C-34.52581285 7.53095593 -31.24059441 6.33999808 -28 5.0625 C-27.10925781 4.69833984 -26.21851563 4.33417969 -25.30078125 3.95898438 C-16.78047868 0.56466649 -9.09229691 -0.03820293 0 0 Z " fill="#35C5F3" transform="translate(370.625,374.875)"/>
<path d="M0 0 C-1.29045696 0.58600461 -2.58246888 1.16858462 -3.875 1.75 C-4.69097656 2.11738281 -5.50695312 2.48476563 -6.34765625 2.86328125 C-8.97373847 3.98874506 -11.62837437 4.9603666 -14.3125 5.9375 C-18.4859778 7.57340025 -20.41783792 9.27021033 -23 13 C-24.65675865 14.01633093 -26.32476389 15.01442314 -28 16 C-37.74977539 23.37911082 -42.31109914 30.92561924 -44 43 C-44.33 43 -44.66 43 -45 43 C-45.4962404 36.30075454 -44.34968911 30.88355135 -41 25 C-39.37331089 23.29429249 -37.70241683 21.63013266 -36 20 C-33.48283583 17.1563911 -30.98616438 14.29652419 -28.5 11.42578125 C-25.14273382 8.16818391 -22.16187928 7.33515748 -17.75 6.0625 C-16.8425 5.711875 -15.935 5.36125 -15 5 C-14.67 4.01 -14.34 3.02 -14 2 C-11.85546875 1.015625 -11.85546875 1.015625 -9.1875 0.25 C-8.31480469 -0.01296875 -7.44210937 -0.2759375 -6.54296875 -0.546875 C-3.94565881 -1.00968292 -2.46623472 -0.85082224 0 0 Z " fill="#6DCFF6" transform="translate(353,382)"/>
<path d="M0 0 C1.1019873 -0.00161133 2.20397461 -0.00322266 3.33935547 -0.00488281 C9.34516953 0.07760204 14.62215757 0.63382493 20.375 2.375 C20.375 2.705 20.375 3.035 20.375 3.375 C19.6221875 3.3028125 18.869375 3.230625 18.09375 3.15625 C3.62085779 1.89162835 -9.49824872 1.71414909 -23.625 5.375 C-24.2742041 5.54128906 -24.9234082 5.70757812 -25.59228516 5.87890625 C-34.55817585 8.25514231 -41.27294379 11.43765948 -47.625 18.375 C-48.285 18.045 -48.945 17.715 -49.625 17.375 C-48.13587587 15.94690555 -46.63303771 14.5331075 -45.125 13.125 C-44.2896875 12.33609375 -43.454375 11.5471875 -42.59375 10.734375 C-30.5291449 1.14618884 -14.85615494 0.02091532 0 0 Z " fill="#EAF7FD" transform="translate(371.625,389.625)"/>
<path d="M0 0 C10.03102568 2.00620514 16.19374783 7.82823769 22 16 C23.25 18.8125 23.25 18.8125 24 21 C24.66 21 25.32 21 26 21 C26.53293835 22.74635165 27.05090663 24.49727652 27.5625 26.25 C27.85253906 27.22453125 28.14257812 28.1990625 28.44140625 29.203125 C28.99249836 31.96243932 28.93789609 33.3912824 28 36 C27.76925781 35.33613281 27.53851563 34.67226563 27.30078125 33.98828125 C25.24219548 28.41463994 23.28331762 25.17623468 19 21 C18.30579993 19.52176221 17.66343478 18.01854473 17.0625 16.5 C15.20100925 11.89606608 12.92760416 9.94570312 9 7 C9 6.34 9 5.68 9 5 C8.2575 4.9175 7.515 4.835 6.75 4.75 C3.48778646 3.8603054 2.19045122 2.51496251 0 0 Z " fill="#16B9ED" transform="translate(407,383)"/>
<path d="M0 0 C-1.68814237 -0.11600255 -3.37550887 -0.24331025 -5.0625 -0.375 C-6.00222656 -0.44460938 -6.94195312 -0.51421875 -7.91015625 -0.5859375 C-11 -1 -11 -1 -14.125 -2.03125 C-19.43505181 -3.35876295 -24.48944025 -3.21292648 -29.9375 -3.125 C-31.53561523 -3.11146484 -31.53561523 -3.11146484 -33.16601562 -3.09765625 C-35.77758034 -3.07423414 -38.38866937 -3.04143452 -41 -3 C-41 -2.34 -41 -1.68 -41 -1 C-42.11375 -0.7525 -43.2275 -0.505 -44.375 -0.25 C-48.6363942 0.80210265 -52.57580015 2.37251541 -56.60546875 4.09765625 C-59.058877 5.02218693 -61.42021161 5.55552491 -64 6 C-62.64068647 3.28137293 -61.31729353 3.1771374 -58.5 2.125 C-55.07408397 0.82568242 -51.78762287 -0.57304234 -48.5 -2.1875 C-36.45126437 -7.49393797 -10.54834633 -8.59407681 0 0 Z " fill="#83D5F7" transform="translate(397,385)"/>
<path d="M0 0 C0 3.54540188 -0.59385272 4.06007364 -2.875 6.625 C-3.40867187 7.23601562 -3.94234375 7.84703125 -4.4921875 8.4765625 C-6 10 -6 10 -8 11 C-9.10646083 13.40662568 -10.10816923 15.78406501 -11.0625 18.25 C-11.33126953 18.91902344 -11.60003906 19.58804687 -11.87695312 20.27734375 C-13.27320216 23.82193607 -14.40863559 27.23278969 -15 31 C-18.31535996 25.25337607 -18.13815898 19.06183321 -18.0625 12.625 C-18.05798828 11.88894531 -18.05347656 11.15289062 -18.04882812 10.39453125 C-18.03715142 8.59631842 -18.01922011 6.79814803 -18 5 C-17.67 5 -17.34 5 -17 5 C-16.67 9.29 -16.34 13.58 -16 18 C-15.46890625 17.14148438 -14.9378125 16.28296875 -14.390625 15.3984375 C-11.92499176 11.69998764 -8.931775 8.70782028 -5.75 5.625 C-5.19570313 5.07972656 -4.64140625 4.53445313 -4.0703125 3.97265625 C-2.71811269 2.64377023 -1.3596965 1.32121452 0 0 Z " fill="#15AAE1" transform="translate(322,388)"/>
<path d="M0 0 C-0.61746094 0.44988281 -1.23492187 0.89976562 -1.87109375 1.36328125 C-13.94641752 10.53464588 -22.35578165 20.9697062 -25 36 C-25.33 36 -25.66 36 -26 36 C-26.27674603 30.06972787 -25.62430368 25.72218657 -23.375 20.25 C-23.13910156 19.60417969 -22.90320313 18.95835937 -22.66015625 18.29296875 C-20.7234895 13.45626769 -18.37046195 11.63908664 -14 9 C-11.85101787 6.72483209 -9.90614573 4.35071293 -7.9296875 1.92578125 C-5.31919256 -0.67942928 -3.40653571 -1.70326785 0 0 Z " fill="#1FBEEF" transform="translate(333,386)"/>
<path d="M0 0 C-0.68707031 0.18175781 -1.37414062 0.36351562 -2.08203125 0.55078125 C-3.43361328 0.92783203 -3.43361328 0.92783203 -4.8125 1.3125 C-5.70582031 1.55613281 -6.59914063 1.79976563 -7.51953125 2.05078125 C-10.09604219 3.03675315 -11.1981188 3.9695616 -13 6 C-15.41624743 7.58963646 -17.56989262 8.86383535 -20.33203125 9.73828125 C-23.77316349 11.36563954 -25.8817643 13.78734114 -28.3125 16.625 C-28.76689453 17.140625 -29.22128906 17.65625 -29.68945312 18.1875 C-30.80108006 19.4512443 -31.9016822 20.72467176 -33 22 C-33 17.76251447 -31.09797742 16.56198728 -28.25 13.5 C-26.92742187 12.06140625 -26.92742187 12.06140625 -25.578125 10.59375 C-21.42482376 6.41527724 -17.44203919 4.15482764 -12 2 C-10.96552734 1.55914062 -10.96552734 1.55914062 -9.91015625 1.109375 C-9.21792969 0.82578125 -8.52570313 0.5421875 -7.8125 0.25 C-7.17957031 -0.01296875 -6.54664063 -0.2759375 -5.89453125 -0.546875 C-3.61447303 -1.09220851 -2.20288622 -0.72289836 0 0 Z " fill="#46C8F4" transform="translate(349,382)"/>
<path d="M0 0 C1.58467728 0.28427417 3.1677057 0.57774818 4.75 0.875 C6.07257813 1.11863281 6.07257813 1.11863281 7.421875 1.3671875 C9.89733667 1.97480082 11.82641115 2.67822299 14 4 C14.33 4.66 14.66 5.32 15 6 C16.71665519 6.94546662 16.71665519 6.94546662 18.75 7.8125 C22.67083263 9.68124217 25.12696064 11.76783073 28 15 C27.67 15.66 27.34 16.32 27 17 C25.2925002 15.71937515 23.62626404 14.38232443 22 13 C22 12.34 22 11.68 22 11 C20.906875 10.71125 19.81375 10.4225 18.6875 10.125 C15 9 15 9 12 7 C12 6.34 12 5.68 12 5 C11.38511719 4.86722656 10.77023437 4.73445313 10.13671875 4.59765625 C9.32847656 4.42105469 8.52023437 4.24445313 7.6875 4.0625 C6.88699219 3.88847656 6.08648437 3.71445312 5.26171875 3.53515625 C3 3 3 3 0 2 C0 1.34 0 0.68 0 0 Z " fill="#74D1F6" transform="translate(397,385)"/>
<path d="M0 0 C0.66 0.33 1.32 0.66 2 1 C1.11957031 1.90621094 0.23914063 2.81242187 -0.66796875 3.74609375 C-9.72867459 13.19283167 -16.13693618 20.68048401 -18 34 C-18.33 34 -18.66 34 -19 34 C-19.4962404 27.30075454 -18.34968911 21.88355135 -15 16 C-13.3777546 14.29006566 -11.70586575 12.62652316 -10 11 C-8.21822291 9.07255938 -6.4473074 7.13502019 -4.6875 5.1875 C-3.80449219 4.21167969 -2.92148437 3.23585938 -2.01171875 2.23046875 C-1.34785156 1.49441406 -0.68398438 0.75835937 0 0 Z " fill="#60CDF5" transform="translate(327,391)"/>
<path d="M0 0 C0.33 0 0.66 0 1 0 C1.02706445 2.89589652 1.04687029 5.79153795 1.0625 8.6875 C1.07087891 9.50412109 1.07925781 10.32074219 1.08789062 11.16210938 C1.10442051 15.24499084 1.03035098 19.01651707 0 23 C-0.66 23 -1.32 23 -2 23 C-3.09506492 19.71480525 -3.09960608 17.26336585 -3.0625 13.8125 C-3.05347656 12.72582031 -3.04445313 11.63914062 -3.03515625 10.51953125 C-3.02355469 9.68808594 -3.01195312 8.85664063 -3 8 C-2.34 8 -1.68 8 -1 8 C-0.67 5.36 -0.34 2.72 0 0 Z " fill="#14A1DC" transform="translate(437,392)"/>
<path d="M0 0 C0.66 0.33 1.32 0.66 2 1 C1.20335937 1.74443359 1.20335937 1.74443359 0.390625 2.50390625 C-6.68592138 9.30927111 -10.18753682 15.60381619 -13 25 C-12.34 25.33 -11.68 25.66 -11 26 C-11.66 26 -12.32 26 -13 26 C-13.33 26.99 -13.66 27.98 -14 29 C-15.41250753 23.58538779 -14.87053285 19.90973506 -12.65625 14.77734375 C-9.30647124 9.16014398 -4.59468243 4.61052616 0 0 Z " fill="#C4E8FA" transform="translate(324,401)"/>
<path d="M0 0 C0 0.66 0 1.32 0 2 C-0.99 2 -1.98 2 -3 2 C-3.309375 2.928125 -3.309375 2.928125 -3.625 3.875 C-5 6 -5 6 -7.6875 6.75 C-11.85929919 8.32426384 -13.55939626 10.59924178 -16.2890625 14.02734375 C-18.02957813 16.03410264 -19.82622355 17.48595046 -22 19 C-20.50176093 15.62510066 -18.55365573 13.08483343 -16.125 10.3125 C-15.44695312 9.52488281 -14.76890625 8.73726563 -14.0703125 7.92578125 C-11.89405347 5.90144973 -10.79260153 5.64677135 -8 5 C-7.67 4.01 -7.34 3.02 -7 2 C-4.56723614 0.81480735 -2.71982714 0 0 0 Z " fill="#0CB4E9" transform="translate(338,379)"/>
<path d="M0 0 C4.87737336 0.41806057 6.8149909 2.4066564 10 6 C11.35555293 7.64864545 12.69631653 9.31003995 14 11 C13.67 11.66 13.34 12.32 13 13 C12.34 12.2575 11.68 11.515 11 10.75 C7.82479426 7.53819246 4.08683153 5.81524279 0 4 C0 2.68 0 1.36 0 0 Z " fill="#3CC6F3" transform="translate(411,387)"/>
<path d="M0 0 C4.52071021 -0.08751499 9.0412007 -0.1405661 13.5625 -0.1875 C15.47772461 -0.22520508 15.47772461 -0.22520508 17.43164062 -0.26367188 C24.04081154 -0.31517191 29.1982641 -0.32400207 35 3 C31.71962146 4.09345951 30.79070766 3.89171294 27.5390625 3.1015625 C21.81427114 1.86337607 16.21649825 1.56217751 10.375 1.375 C9.37082031 1.33632813 8.36664063 1.29765625 7.33203125 1.2578125 C4.88818995 1.16471378 2.44433404 1.07889087 0 1 C0 0.67 0 0.34 0 0 Z " fill="#4ECAF5" transform="translate(359,377)"/>
<path d="M0 0 C9.17197233 0.99695351 16.7447512 3.1642564 24 9 C23.01 9.495 23.01 9.495 22 10 C20.31984746 9.02282795 18.65556841 8.01826864 17 7 C15.01892493 6.25973126 13.01712639 5.57299773 11 4.9375 C7.26712116 3.75193006 3.62009949 2.4972838 0 1 C0 0.67 0 0.34 0 0 Z " fill="#31C4F3" transform="translate(387,377)"/>
<path d="M0 0 C0.66 0 1.32 0 2 0 C4.96879503 5.61904982 6.83332551 9.58336071 5 16 C4.34 16.66 3.68 17.32 3 18 C3.061875 16.989375 3.12375 15.97875 3.1875 14.9375 C2.98209823 10.62406285 1.76575922 7.89938494 0 4 C0 2.68 0 1.36 0 0 Z " fill="#BAE5F9" transform="translate(428,412)"/>
<path d="M0 0 C1.875 0.625 1.875 0.625 4 2 C6.03569718 6.37674895 6.19117978 10.22050561 6 15 C3.61874536 12.61874536 2.99813759 10.66142433 1.875 7.5 C1.52179688 6.5203125 1.16859375 5.540625 0.8046875 4.53125 C0 2 0 2 0 0 Z " fill="#63CEF5" transform="translate(429,408)"/>
<path d="M0 0 C4.45165834 1.39909262 6.85625212 3.60135365 10 7 C10.66 7.66 11.32 8.32 12 9 C11.625 11.125 11.625 11.125 11 13 C10.484375 12.113125 9.96875 11.22625 9.4375 10.3125 C7.69497586 7.65153353 5.87641755 6.03468536 3.25 4.25 C2.1775 3.5075 1.105 2.765 0 2 C0 1.34 0 0.68 0 0 Z " fill="#DBF1FC" transform="translate(416,403)"/>
<path d="M0 0 C6.2266447 0.75934691 11.47608854 3.12756604 17 6 C17 6.66 17 7.32 17 8 C10.62999095 6.50384129 5.13869251 5.16650744 0 1 C0 0.67 0 0.34 0 0 Z " fill="#57CBF5" transform="translate(394,381)"/>
<path d="M0 0 C3.23238414 0.07696153 5.33227795 0.37438655 7.734375 2.625 C9.21851673 4.37770071 10.63844334 6.15079362 12 8 C11.67 8.66 11.34 9.32 11 10 C9.66102417 9.04956626 8.32894573 8.08940853 7 7.125 C6.2575 6.59132813 5.515 6.05765625 4.75 5.5078125 C4.1725 5.01023437 3.595 4.51265625 3 4 C3 3.34 3 2.68 3 2 C2.01 1.67 1.02 1.34 0 1 C0 0.67 0 0.34 0 0 Z " fill="#BEE7FB" transform="translate(411,397)"/>
<path d="M0 0 C0.66 0 1.32 0 2 0 C2.53293835 1.74635165 3.05090663 3.49727652 3.5625 5.25 C3.85253906 6.22453125 4.14257812 7.1990625 4.44140625 8.203125 C4.99249836 10.96243932 4.93789609 12.3912824 4 15 C3.32243118 13.44219668 2.65840543 11.87849904 2 10.3125 C1.62875 9.44238281 1.2575 8.57226562 0.875 7.67578125 C-0.01870488 4.9427998 -0.16449676 2.85299066 0 0 Z " fill="#14B8EC" transform="translate(431,404)"/>
<path d="M0 0 C0.66 0 1.32 0 2 0 C0.125 6.75 0.125 6.75 -1 9 C-1.66 9 -2.32 9 -3 9 C-2.44271087 5.65626525 -1.64826111 2.96687001 0 0 Z " fill="#13B7EB" transform="translate(314,398)"/>
<path d="M0 0 C0.5775 0.2475 1.155 0.495 1.75 0.75 C-1.11181411 3.91305771 -4.4599782 5.8549891 -8.25 7.75 C-6.64613593 4.0076505 -4.56199942 -0.50688882 0 0 Z " fill="#7CD3F6" transform="translate(331.25,391.25)"/>
<path d="M0 0 C0.99 0.33 1.98 0.66 3 1 C3 1.66 3 2.32 3 3 C3.99 3.33 4.98 3.66 6 4 C6 5.32 6 6.64 6 8 C5.34 8 4.68 8 4 8 C0 2.58823529 0 2.58823529 0 0 Z " fill="#35C4F2" transform="translate(425,400)"/>
<path d="M0 0 C4.28906722 0.50459614 8.11298145 1.05649073 12 3 C12.33 3.66 12.66 4.32 13 5 C8.39146203 4.27991594 4.32762591 2.68704061 0 1 C0 0.67 0 0.34 0 0 Z " fill="#ECF7FD" transform="translate(395,394)"/>
<path d="M0 0 C3.375 0.6875 3.375 0.6875 7 2 C8.4375 4.625 8.4375 4.625 9 7 C7.02 6.01 5.04 5.02 3 4 C3 3.34 3 2.68 3 2 C2.01 2 1.02 2 0 2 C0 1.34 0 0.68 0 0 Z " fill="#8ED8F7" transform="translate(412,394)"/>
<path d="M0 0 C1.98 0 3.96 0 6 0 C6.66 1.32 7.32 2.64 8 4 C4.31245243 3.50168276 2.39509338 2.89932357 0 0 Z " fill="#E3F4FD" transform="translate(408,399)"/>
<path d="M0 0 C0.66 0.33 1.32 0.66 2 1 C-0.83430453 4.2542015 -2.68607774 5.5206753 -7 6 C-5.01180815 3.01771223 -3.42353587 1.21480305 0 0 Z " fill="#C3E8FB" transform="translate(333,395)"/>
</svg>
