<?xml version="1.0" encoding="UTF-8"?>
<svg version="1.1" xmlns="http://www.w3.org/2000/svg" width="1200" height="800">
<path d="M0 0 C396 0 792 0 1200 0 C1200 264 1200 528 1200 800 C804 800 408 800 0 800 C0 536 0 272 0 0 Z " fill="#FEFEFE" transform="translate(0,0)"/>
<path d="M0 0 C13.72255702 10.94649951 22.12781351 27.50681163 25.01171875 44.60546875 C27.09142865 63.80069052 21.55640551 82.25047799 9.69921875 97.48046875 C-1.79123757 110.64822323 -19.42700792 121.11643752 -37.10595703 122.80810547 C-56.43122521 123.99715744 -74.60898014 119.71095823 -89.98828125 107.60546875 C-90.74882812 107.02152344 -91.509375 106.43757813 -92.29296875 105.8359375 C-102.33074731 97.58689803 -108.69780147 86.75321271 -112.98828125 74.60546875 C-113.34019531 73.64511719 -113.69210937 72.68476563 -114.0546875 71.6953125 C-118.91007501 55.62580821 -116.41106178 37.41175585 -108.98828125 22.60546875 C-99.76107039 5.9964892 -86.2123307 -6.24610766 -68.03125 -12.39453125 C-43.65659578 -19.33013738 -20.55962434 -14.42001157 0 0 Z " fill="#EF4752" transform="translate(423.98828125,346.39453125)"/>
<path d="M0 0 C1.60178001 -0.03852598 3.2038277 -0.0660309 4.8059082 -0.08886719 C6.14405327 -0.11361115 6.14405327 -0.11361115 7.50923157 -0.13885498 C10 0 10 0 13.10546875 1.421875 C15.9335208 5.27035821 15.54606673 8.61504396 15.3125 13.25 C15.209375 16.1375 15.10625 19.025 15 22 C22.92 22 30.84 22 39 22 C39 14.74 39 7.48 39 0 C49 0 49 0 52.08789062 1.90136719 C54.74398317 6.2056479 54.68562058 9.61045464 54.59375 14.578125 C54.59379028 15.50413513 54.59383057 16.43014526 54.59387207 17.38421631 C54.5885199 19.34101148 54.57095008 21.29780632 54.54199219 23.25439453 C54.50033269 26.22626677 54.50091093 29.19585517 54.5078125 32.16796875 C54.49731176 34.07553637 54.48436892 35.98309242 54.46875 37.890625 C54.46854858 38.76906067 54.46834717 39.64749634 54.46813965 40.55255127 C54.30086641 49.42586714 52.35721601 56.64278399 46 63 C41.8202046 66.15463368 38.1111499 66.46733695 33.03125 66.46875 C32.27332153 66.47636353 31.51539307 66.48397705 30.73449707 66.49182129 C29.13764733 66.50259026 27.54072734 66.50548843 25.94384766 66.50097656 C23.50694142 66.50000277 21.07317197 66.54168305 18.63671875 66.5859375 C17.0807357 66.59114414 15.52474176 66.5938327 13.96875 66.59375 C13.24465942 66.61014526 12.52056885 66.62654053 11.77453613 66.64343262 C7.85915005 66.59018244 6.15779824 66.12630159 3.06445312 63.65039062 C0.06698182 59.80217061 -0.12380096 57.07224168 -0.11352539 52.33520508 C-0.11344986 51.17422806 -0.11337433 50.01325104 -0.11329651 48.8170929 C-0.10813522 47.56389755 -0.10297394 46.31070221 -0.09765625 45.01953125 C-0.0962413 43.73640549 -0.09482635 42.45327972 -0.09336853 41.13127136 C-0.08955405 37.72329759 -0.07973291 34.31536657 -0.06866455 30.90740967 C-0.05842743 27.42851337 -0.05386598 23.94961015 -0.04882812 20.47070312 C-0.03810967 13.64711788 -0.02104609 6.82356099 0 0 Z " fill="#5A5A5C" transform="translate(484,355)"/>
<path d="M0 0 C1.77007714 -0.08114106 3.54122098 -0.13925505 5.3125 -0.1875 C6.29863281 -0.22230469 7.28476562 -0.25710938 8.30078125 -0.29296875 C11 0 11 0 12.83227539 1.03686523 C14.64020568 4.07628976 14.40052111 7.16322083 14.37109375 10.59765625 C14.38849652 12.13737178 14.40608064 13.67708528 14.42382812 15.21679688 C14.43383604 17.63016907 14.43751364 20.04339518 14.43579102 22.45678711 C14.44138295 35.68043814 14.44138295 35.68043814 19 48 C19.66 48 20.32 48 21 48 C24.50994691 41.90956947 25.59909097 37.44671809 25.609375 30.46875 C25.62591125 29.59222778 25.64244751 28.71570557 25.65948486 27.81262207 C25.70766503 25.04167465 25.72926847 22.27127477 25.75 19.5 C25.77818484 17.60934789 25.80811576 15.71872096 25.83984375 13.828125 C25.91341555 9.21879515 25.96317268 4.60976392 26 0 C27.93681161 -0.08107583 29.8745934 -0.13922475 31.8125 -0.1875 C32.89144531 -0.22230469 33.97039063 -0.25710938 35.08203125 -0.29296875 C38 0 38 0 39.86352539 1.0390625 C41.62389216 4.07649879 41.40046516 7.14955634 41.37109375 10.5625 C41.38850013 12.09765821 41.4060842 13.63281441 41.42382812 15.16796875 C41.43382453 17.57247055 41.43751663 19.97682612 41.43579102 22.38134766 C41.45266146 33.23916561 41.93803699 42.41681857 47.8125 51.9375 C50.64668746 54.60973389 53.54418975 56.20563698 57 58 C54.66666667 60.33333333 52.33333333 62.66666667 50 65 C44.77873466 64.83180798 42.32090996 62.98357577 38.625 59.4375 C37.75101563 58.61121094 36.87703125 57.78492188 35.9765625 56.93359375 C34.99816406 55.97646484 34.99816406 55.97646484 34 55 C33.32904297 55.58007812 33.32904297 55.58007812 32.64453125 56.171875 C31.39129137 57.25142492 30.13323088 58.32539698 28.87109375 59.39453125 C27.34148238 60.70699529 25.8519512 62.06604531 24.375 63.4375 C22 65 22 65 19.609375 64.8125 C16.62252291 63.88246222 15.1390517 62.69781151 12.875 60.5625 C10.61635887 58.45765739 8.58443252 56.72295502 6 55 C5.319375 55.9075 4.63875 56.815 3.9375 57.75 C0.98927135 61.26615938 -1.80063268 63.12528245 -6 65 C-10.41270269 65 -12.77651488 62.85508682 -16 60 C-14.65709609 55.97128826 -12.48692446 55.32461631 -9 53 C-2.07420576 45.67844609 -0.89544543 37.29157679 -0.68359375 27.63671875 C-0.66281265 26.84473587 -0.64203156 26.05275299 -0.62062073 25.23677063 C-0.55552196 22.72043072 -0.49642577 20.20399128 -0.4375 17.6875 C-0.394277 15.97590139 -0.35066152 14.26431265 -0.30664062 12.55273438 C-0.19988153 8.36859016 -0.09850365 4.18434638 0 0 Z " fill="#5C5C5D" transform="translate(597,355)"/>
<path d="M0 0 C1.26108078 0.00015106 2.52216156 0.00030212 3.82145691 0.00045776 C5.19778603 0.01067102 6.57411353 0.02110301 7.95043945 0.03173828 C9.35862528 0.03546906 10.7668137 0.03831572 12.17500305 0.04031372 C15.87894881 0.04794514 19.58273738 0.0675893 23.28662109 0.08972168 C27.06711704 0.11019075 30.84763842 0.1193177 34.62817383 0.12939453 C42.04426106 0.15083575 49.46021885 0.18496565 56.8762207 0.22705078 C57.24305862 6.707854 57.24305862 6.707854 55.6726532 8.93049622 C53.31743412 10.6303486 51.83845738 10.62299238 48.94580078 10.65942383 C47.44458427 10.68911507 47.44458427 10.68911507 45.91304016 10.71940613 C44.2957325 10.72899101 44.2957325 10.72899101 42.64575195 10.73876953 C40.98741585 10.76569633 40.98741585 10.76569633 39.295578 10.79316711 C35.75999786 10.84740505 32.22455374 10.88120971 28.6887207 10.91455078 C26.29351943 10.94771187 23.89833613 10.98220039 21.50317383 11.01806641 C15.62750173 11.10564142 9.75245685 11.16559718 3.8762207 11.22705078 C3.8762207 20.46705078 3.8762207 29.70705078 3.8762207 39.22705078 C21.6962207 39.55705078 39.5162207 39.88705078 57.8762207 40.22705078 C57.8762207 42.86705078 57.8762207 45.50705078 57.8762207 48.22705078 C55.18649896 50.91677253 53.79942732 50.49644729 50.03710938 50.53344727 C48.81211227 50.54943466 47.58711517 50.56542206 46.32499695 50.58189392 C44.98139867 50.58827121 43.6377954 50.59366376 42.29418945 50.59814453 C40.91896973 50.60710985 39.54375102 50.61623167 38.16853333 50.62550354 C35.28257883 50.64200783 32.39674051 50.6496959 29.51074219 50.65258789 C25.81823978 50.65796537 22.12683474 50.69561032 18.43464184 50.74133205 C15.59239251 50.7711283 12.75040621 50.77831201 9.9080143 50.77931404 C8.54725444 50.78351341 7.18649359 50.79593674 5.82588768 50.81683159 C-6.16158381 50.986225 -6.16158381 50.986225 -9.43505859 47.87963867 C-12.26653767 43.43204288 -12.29733544 39.56334912 -12.3269043 34.45361328 C-12.33260437 33.69285492 -12.33830444 32.93209656 -12.34417725 32.14828491 C-12.35361678 30.53946316 -12.36015707 28.93062217 -12.36401367 27.32177734 C-12.3737163 24.86798163 -12.4047471 22.41502489 -12.4362793 19.96142578 C-12.44281014 18.39632657 -12.44806029 16.83122139 -12.4519043 15.26611328 C-12.4642511 14.5357486 -12.4765979 13.80538391 -12.48931885 13.05288696 C-12.46992576 8.58980903 -11.89711068 5.7582961 -9.1237793 2.22705078 C-5.59760286 -0.12373351 -4.17213049 -0.01665521 0 0 Z " fill="#5D5D5F" transform="translate(820.123779296875,355.77294921875)"/>
<path d="M0 0 C4.55318701 -0.07468636 9.10600998 -0.12885256 13.65966797 -0.16479492 C15.20562968 -0.1797933 16.75154948 -0.20019887 18.29736328 -0.22631836 C36.83466028 -0.53148367 36.83466028 -0.53148367 43.875 5.4375 C50.56845779 13.50902263 48.69411536 25.06433832 48 35 C46.22625941 45.37301458 39.71589771 53.45672339 31.40429688 59.64624023 C23.71845112 65.06467075 14.72966031 70.9158889 5 70 C2.49238911 68.64816038 1.05221664 67.05221664 -1 65 C-1 64.34 -1 63.68 -1 63 C-0.16597656 62.70867187 0.66804687 62.41734375 1.52734375 62.1171875 C12.88261927 57.98090157 21.88748869 53.05728409 29 43 C29.99 40.69 30.98 38.38 32 36 C20.78 36 9.56 36 -2 36 C-2 33.03 -2 30.06 -2 27 C9.55 27 21.1 27 33 27 C33.06334169 16.07101925 33.06334169 16.07101925 30 12 C26.76134365 10.92044788 24.20844162 10.79558259 20.80078125 10.68359375 C19.59228516 10.64169922 18.38378906 10.59980469 17.13867188 10.55664062 C15.87603516 10.51732422 14.61339844 10.47800781 13.3125 10.4375 C12.03826172 10.39431641 10.76402344 10.35113281 9.45117188 10.30664062 C6.30089148 10.2004514 3.15053161 10.09840467 0 10 C0 6.7 0 3.4 0 0 Z " fill="#5A5A5C" transform="translate(695,355)"/>
<path d="M0 0 C2.34784301 1.74194804 2.84191915 3.11190532 3.34765625 5.953125 C3.78726566 12.40072974 1.49692512 16.71714526 -2 22 C-1.20335937 22.31130859 -1.20335937 22.31130859 -0.390625 22.62890625 C3.89219703 24.49677936 7.23389693 26.2808955 9.37890625 30.67578125 C11.05355493 36.94254833 11.141386 44.06762889 8.78515625 50.12109375 C4.9918932 56.2384567 0.55051485 59.11262913 -5.875 61.875 C-6.55691406 62.1946875 -7.23882812 62.514375 -7.94140625 62.84375 C-12.61823325 64.89264564 -15.91664803 65.43868452 -21 64 C-28.14088127 52.42684759 -27.56075049 34.43782678 -25.41796875 21.48046875 C-22.83558588 13.23806864 -16.65308952 6.56789117 -9.875 1.375 C-6.27845014 -0.34508907 -3.93654884 -0.59419605 0 0 Z " fill="#FEF9F9" transform="translate(339,359)"/>
<path d="M0 0 C4.95 0 9.9 0 15 0 C15 9.9 15 19.8 15 30 C20.61 30 26.22 30 32 30 C32 33.3 32 36.6 32 40 C26.39 40 20.78 40 15 40 C15.02618408 41.61487305 15.05236816 43.22974609 15.0793457 44.89355469 C15.16977979 50.8794166 15.22722583 56.86521803 15.2746582 62.8515625 C15.29981755 65.44346263 15.33394851 68.03529172 15.37719727 70.62695312 C15.43778231 74.35043861 15.46619646 78.07298695 15.48828125 81.796875 C15.51408768 82.95741394 15.5398941 84.11795288 15.56648254 85.31365967 C15.56922932 93.17470865 15.56922932 93.17470865 13.09448242 96.76269531 C10 98 10 98 0 98 C0 65.66 0 33.32 0 0 Z " fill="#5E5E60" transform="translate(759,351)"/>
<path d="M0 0 C0.68191406 -0.01611328 1.36382812 -0.03222656 2.06640625 -0.04882812 C7.09555366 -0.05361779 10.75492688 0.74745708 15.125 3.3125 C16.0625 6 16.0625 6 16.125 8.3125 C14.94164062 8.26609375 13.75828125 8.2196875 12.5390625 8.171875 C-0.21521775 7.66957307 -0.21521775 7.66957307 -11.875 12.3125 C-14.4154226 14.65080958 -14.4154226 14.65080958 -15.875 17.3125 C-16.40480469 18.18841797 -16.40480469 18.18841797 -16.9453125 19.08203125 C-19.47469497 25.15042365 -18.69764147 33.23084469 -16.3125 39.25 C-13.01003523 45.56523964 -7.78486408 49.65887348 -1.03515625 51.84375 C6.58154969 53.49656142 14.01043066 52.3803596 21.125 49.3125 C22.46820052 48.44143951 23.7843491 47.52648356 25.0625 46.5625 C26.073125 45.82 27.08375 45.0775 28.125 44.3125 C29.115 44.6425 30.105 44.9725 31.125 45.3125 C31.72953401 52.44600126 31.72953401 52.44600126 29.25 56 C20.28632573 62.63311896 12.30090939 64.50378059 1.375 64.625 C0.09109375 64.66850586 0.09109375 64.66850586 -1.21875 64.71289062 C-10.84632567 64.80770766 -18.90844082 60.89795638 -25.875 54.3125 C-31.51001364 47.52121083 -34.60418488 38.49041318 -34.21484375 29.66015625 C-32.88354519 20.46348457 -28.84255155 13.40910761 -21.875 7.3125 C-18.98861869 5.34495007 -16.061646 3.73705091 -12.875 2.3125 C-12.12347656 1.94640625 -11.37195313 1.5803125 -10.59765625 1.203125 C-7.05314905 0.04365923 -3.68831003 -0.01723509 0 0 Z " fill="#FEFAFA" transform="translate(380.875,339.6875)"/>
<path d="M0 0 C4.95 0 9.9 0 15 0 C15.11577412 12.18689282 15.20465481 24.37365514 15.25906086 36.56098557 C15.28517119 42.21989088 15.3205961 47.87842038 15.37719727 53.53710938 C15.43146484 58.99657136 15.46140971 64.45567154 15.47438622 69.91538239 C15.48363548 71.99986722 15.501697 74.08433193 15.52865028 76.16866302 C15.56487038 79.08521036 15.56994825 82.00025668 15.56762695 84.91699219 C15.59459152 86.21387466 15.59459152 86.21387466 15.62210083 87.53695679 C15.58848752 91.43181556 15.45920492 93.38282683 13.08952332 96.56768799 C10 98 10 98 0 98 C0 65.66 0 33.32 0 0 Z " fill="#5D5D5F" transform="translate(555,351)"/>
<path d="M0 0 C4.62 0 9.24 0 14 0 C14.06943244 12.07384494 14.12277691 24.14764258 14.15543652 36.22164631 C14.17110947 41.82776745 14.19237755 47.43375226 14.22631836 53.03979492 C14.25885356 58.44735751 14.27684073 63.85478875 14.28463173 69.26244164 C14.29018574 71.32817847 14.30103101 73.39390791 14.31719017 75.459589 C14.33888675 78.34732365 14.34197018 81.23451175 14.34057617 84.12231445 C14.351362 84.98114731 14.36214783 85.83998016 14.3732605 86.72483826 C14.34215648 92.65784352 14.34215648 92.65784352 11 96 C7.37 96 3.74 96 0 96 C0 64.32 0 32.64 0 0 Z " fill="#58585A" transform="translate(660,352)"/>
<path d="M0 0 C31.35 0 62.7 0 95 0 C95 2.31 95 4.62 95 7 C92.35746891 9.64253109 90.44436576 9.23625334 86.84925842 9.24884033 C85.55561623 9.2380545 85.55561623 9.2380545 84.23583984 9.22705078 C83.32846573 9.22734283 82.42109161 9.22763489 81.48622131 9.22793579 C78.47769714 9.22653898 75.46941858 9.21096128 72.4609375 9.1953125 C70.37871435 9.19158362 68.29648945 9.18873606 66.21426392 9.18673706 C60.72659483 9.17909077 55.23903116 9.15943375 49.75140381 9.1373291 C44.15459621 9.11689209 38.55777163 9.10773994 32.9609375 9.09765625 C21.97391195 9.07618879 10.98696473 9.04204086 0 9 C0 6.03 0 3.06 0 0 Z " fill="#58585A" transform="translate(796,425)"/>
<path d="M0 0 C7.92 0 15.84 0 24 0 C24.061875 3.031875 24.12375 6.06375 24.1875 9.1875 C24.21481201 10.13391357 24.24212402 11.08032715 24.27026367 12.05541992 C24.31755702 16.84628681 24.19156787 20.14384415 21 24 C17.71646451 25.64176774 14.10480362 25.18454039 10.5 25.1875 C9.71496094 25.19974609 8.92992187 25.21199219 8.12109375 25.22460938 C6.07936274 25.22986254 4.03807749 25.1222018 2 25 C0 23 0 23 -0.22705078 20.66162109 C-0.21657715 19.70852051 -0.20610352 18.75541992 -0.1953125 17.7734375 C-0.19031738 16.84450684 -0.18532227 15.91557617 -0.18017578 14.95849609 C-0.16196777 13.77594238 -0.14375977 12.59338867 -0.125 11.375 C-0.08375 7.62125 -0.0425 3.8675 0 0 Z " fill="#FCFCFC" transform="translate(499,387)"/>
<path d="M0 0 C-0.03298207 7.89920566 -1.99025097 12.90605156 -7 19 C-7.83917969 19.77537109 -7.83917969 19.77537109 -8.6953125 20.56640625 C-10.33653695 22.04672069 -10.33653695 22.04672069 -10 25 C-9.319375 24.484375 -8.63875 23.96875 -7.9375 23.4375 C-4.10852228 21.56374495 -2.06665724 21.87037299 2 23 C4.78725666 25.89048838 5.41172738 27.9648212 5.375 31.9375 C5.20843465 36.14481725 4.98324996 38.83594701 2 42 C-5.58333333 47 -5.58333333 47 -9 47 C-13.05070125 35.47762712 -15.13160763 21.18857349 -13 9 C-10.10275128 3.27358412 -6.48418395 0 0 0 Z " fill="#EF4A55" transform="translate(331,369)"/>
<path d="M0 0 C-0.03298207 7.89920566 -1.99025097 12.90605156 -7 19 C-7.53496094 19.51304687 -8.06992187 20.02609375 -8.62109375 20.5546875 C-10.67518037 22.70769614 -11.18706649 25.1859994 -12 28 C-12.33 28 -12.66 28 -13 28 C-14.06939657 11.16124766 -14.06939657 11.16124766 -11.51171875 5.9921875 C-7.89768896 1.93669237 -5.54598105 0 0 0 Z " fill="#F0545E" transform="translate(331,369)"/>
</svg>
