<?xml version="1.0" standalone="no"?>
<!DOCTYPE svg PUBLIC "-//W3C//DTD SVG 20010904//EN"
 "http://www.w3.org/TR/2001/REC-SVG-20010904/DTD/svg10.dtd">
<svg version="1.0" xmlns="http://www.w3.org/2000/svg"
 width="1200.000000pt" height="800.000000pt" viewBox="0 0 1200.000000 800.000000"
 preserveAspectRatio="xMidYMid meet">

<g transform="translate(0.000000,800.000000) scale(0.100000,-0.100000)"
fill="#000000" stroke="none">
<path d="M3845 4665 c-255 -55 -459 -256 -510 -500 -21 -102 -22 -845 -1 -845
12 0 15 64 18 408 l3 407 31 85 c16 47 47 111 68 142 80 122 222 224 366 265
62 17 159 18 2185 18 2026 0 2123 -1 2185 -18 144 -41 286 -143 366 -265 21
-31 52 -95 68 -142 l31 -85 3 -407 c3 -344 6 -408 18 -408 21 0 20 743 -1 845
-45 215 -216 404 -435 480 l-85 30 -2125 2 c-1725 1 -2136 -1 -2185 -12z"/>
<path d="M3930 4208 c-48 -14 -85 -42 -112 -86 -23 -37 -23 -39 -26 -419 l-3
-383 2216 0 2216 0 -3 384 -3 384 -30 43 c-16 23 -48 52 -70 63 l-40 21 -2055
2 c-1343 1 -2067 -2 -2090 -9z m2050 -423 l0 -195 -34 0 c-19 0 -36 5 -38 11
-2 7 -24 6 -68 -4 -105 -25 -130 -3 -130 110 0 101 38 141 145 153 l50 5 3 58
3 57 34 0 35 0 0 -195z m508 168 c-3 -25 -7 -28 -38 -28 -31 0 -35 3 -38 28
-3 26 -1 27 38 27 39 0 41 -1 38 -27z m1272 -168 l0 -195 -39 0 c-22 0 -41 5
-43 10 -2 7 -25 6 -67 -4 -65 -15 -94 -10 -113 18 -9 13 -10 158 -2 181 10 25
98 65 144 65 l40 0 0 60 0 60 40 0 40 0 0 -195z m-3430 90 l0 -75 85 0 85 0 0
76 0 75 38 -3 37 -3 3 -177 2 -178 -40 0 -40 0 0 75 0 75 -85 0 -85 0 0 -75 0
-75 -40 0 -40 0 0 180 0 180 40 0 40 0 0 -75z m2530 45 l0 -30 -105 0 -106 0
3 -122 3 -123 110 -5 110 -5 -35 -22 c-30 -20 -49 -23 -128 -23 -85 0 -95 2
-117 25 -23 23 -25 31 -25 132 0 126 6 140 78 178 38 20 62 24 130 25 l82 0 0
-30z m-1246 -71 c25 -20 26 -23 26 -140 l0 -119 -40 0 -40 0 0 110 0 110 -60
0 -60 0 0 -110 0 -110 -35 0 -35 0 0 135 0 135 34 0 c19 0 36 -5 38 -11 2 -7
21 -6 58 4 75 20 83 20 114 -4z m1854 -11 l3 -28 -65 0 -66 0 0 -110 0 -110
-40 0 -40 0 0 135 0 135 39 0 c22 0 41 -5 43 -10 2 -7 16 -6 38 4 52 23 84 17
88 -16z m-2728 -88 l0 -110 60 0 60 0 0 110 0 110 35 0 35 0 0 -166 c0 -151
-2 -170 -21 -200 -35 -57 -49 -45 -49 41 0 41 -3 75 -7 75 -5 0 -35 -7 -67
-14 -66 -16 -98 -9 -115 23 -6 11 -11 69 -11 130 l0 111 40 0 40 0 0 -110z
m350 0 l0 -110 60 0 60 0 0 110 0 110 40 0 40 0 0 -135 0 -135 -39 0 c-22 0
-41 5 -43 10 -2 7 -24 6 -67 -4 -74 -17 -106 -9 -121 29 -11 29 -14 218 -3
228 3 4 21 7 40 7 l33 0 0 -110z m1240 -25 l0 -135 -33 0 c-18 0 -38 5 -44 11
-7 7 -28 6 -72 -6 -62 -16 -94 -11 -113 19 -13 19 -9 171 5 188 29 37 90 57
175 58 l82 0 0 -135z m160 0 l0 -135 -40 0 -40 0 0 135 0 135 40 0 40 0 0
-135z m690 0 l0 -135 -34 0 c-19 0 -36 5 -38 12 -3 8 -21 7 -67 -4 -66 -17
-84 -15 -113 10 -24 20 -26 157 -2 190 29 42 82 61 172 62 l82 0 0 -135z"/>
<path d="M5790 3725 l0 -85 60 0 60 0 0 85 0 85 -60 0 -60 0 0 -85z"/>
<path d="M7564 3797 c-3 -8 -4 -45 -2 -83 l3 -69 58 -3 57 -3 0 86 0 85 -55 0
c-38 0 -57 -4 -61 -13z"/>
<path d="M6140 3725 l0 -85 55 0 55 0 0 85 0 85 -55 0 -55 0 0 -85z"/>
<path d="M6990 3725 l0 -85 60 0 60 0 0 85 0 85 -60 0 -60 0 0 -85z"/>
</g>
</svg>
