<?xml version="1.0" encoding="UTF-8"?>
<svg version="1.1" xmlns="http://www.w3.org/2000/svg" width="1200" height="800">
<path d="M0 0 C396 0 792 0 1200 0 C1200 264 1200 528 1200 800 C804 800 408 800 0 800 C0 536 0 272 0 0 Z " fill="#FEFEFE" transform="translate(0,0)"/>
<path d="M0 0 C7.43219953 6.03979231 14.09812248 13.00144318 20.8125 19.8125 C22.6291099 21.65471399 24.4480401 23.49464345 26.26953125 25.33203125 C27.05948486 26.13358643 27.84943848 26.9351416 28.66333008 27.76098633 C31.00311369 30.00298356 33.46356827 31.98659063 36 34 C43.39352598 42.48487805 47.89839684 52.78481856 47.375 64.15234375 C45.51342548 78.28867525 38.83112185 87.9858933 28.27197266 97.23168945 C24.74677191 100.33367152 21.41566285 103.57087455 18.1328125 106.9296875 C17.26688477 107.81406494 16.40095703 108.69844238 15.50878906 109.60961914 C13.79168745 111.37176522 12.08228973 113.14146132 10.38183594 114.91967773 C0.53141912 124.98683511 -9.74349071 131.00470106 -24 131.375 C-40.60213837 130.94377563 -50.6707195 122.77700061 -61.7578125 111.31640625 C-64.08029052 108.91642397 -66.43923704 106.648623 -69 104.5 C-82.24979937 93.14302911 -93.57643568 82.11318284 -95.28515625 63.97265625 C-95.84098664 51.9866727 -91.51278707 43.05020516 -84 34 C-81.2932796 31.05692479 -78.47599662 28.24030362 -75.625 25.4375 C-74.90828125 24.72142578 -74.1915625 24.00535156 -73.453125 23.26757812 C-69.34370254 19.19153545 -65.11740135 15.32021434 -60.73291016 11.54321289 C-58.620239 9.66181047 -56.75673757 7.61006556 -54.875 5.5 C-39.97312635 -9.66148817 -17.6527266 -10.79630525 0 0 Z " fill="#ED1D26" transform="translate(473,338)"/>
<path d="M0 0 C5.49292018 2.64473935 9.58024826 6.88936338 12.125 12.46484375 C13.38418689 17.55218362 13.2886465 22.46700256 13.25 27.6875 C13.26160156 29.22567383 13.26160156 29.22567383 13.2734375 30.79492188 C13.2474639 41.07397381 11.84969618 50.21702306 7.5 59.5625 C7.19191406 60.25923828 6.88382812 60.95597656 6.56640625 61.67382812 C5.28511413 64.5141173 4.22067517 66.77932483 2 69 C-0.625 68.625 -0.625 68.625 -3 68 C-4.29677689 63.66169184 -3.68526635 61.50678771 -1.6875 57.5 C4.97262204 43.91258771 7.51291359 28.76383268 2.94921875 14.05859375 C1.89249788 11.76685754 1.01999425 10.51499569 -1 9 C-4.0677324 8.32204809 -6.91856515 8.4138575 -10 9 C-13.77254836 12.1921563 -15.30024439 16.18810028 -16 21 C-17.31172909 36.94786425 -14.44132674 58.40108045 -5 71.75 C-1.85052589 75.44581145 0.92071741 77.5746922 5.75 78.5625 C12.85909682 77.3320794 17.62321746 72.81618376 21.75 67.125 C22.51570313 65.95324219 22.51570313 65.95324219 23.296875 64.7578125 C25 63 25 63 27.578125 62.6171875 C30 63 30 63 32 65 C31.30747625 71.18141568 25.94182844 76.35433732 21.5 80.3125 C15.21149876 85.30791116 10.2570645 86.68370305 2.19140625 86.47265625 C-4.39901537 85.49659626 -8.0918324 81.31876039 -12.1875 76.375 C-21.76589414 62.7101714 -24.18133953 45.92516636 -24.3125 29.6875 C-24.34150391 28.50220703 -24.37050781 27.31691406 -24.40039062 26.09570312 C-24.45978134 17.85866849 -23.64502327 11.24483722 -18.1484375 4.84375 C-17.27058594 4.17859375 -17.27058594 4.17859375 -16.375 3.5 C-15.78460938 3.0359375 -15.19421875 2.571875 -14.5859375 2.09375 C-10.13638051 -0.97490999 -5.227585 -0.5257203 0 0 Z " fill="#FEF7F7" transform="translate(453,356)"/>
<path d="M0 0 C2.97 0 5.94 0 9 0 C9 20.46 9 40.92 9 62 C6.03 62 3.06 62 0 62 C0 55.73 0 49.46 0 43 C-1.485 43.495 -1.485 43.495 -3 44 C-7.68384805 44.23631727 -12.3733315 44.18517748 -17.0625 44.1875 C-18.36767578 44.19974609 -19.67285156 44.21199219 -21.01757812 44.22460938 C-22.26087891 44.22654297 -23.50417969 44.22847656 -24.78515625 44.23046875 C-26.50037476 44.23663208 -26.50037476 44.23663208 -28.25024414 44.24291992 C-31 44 -31 44 -33 42 C-33.17539436 39.05903263 -33.23132375 36.21346651 -33.1953125 33.2734375 C-33.1924826 32.41062164 -33.18965271 31.54780579 -33.18673706 30.65884399 C-33.17552333 27.8974228 -33.15041684 25.1363235 -33.125 22.375 C-33.11497173 20.50521301 -33.10584562 18.63542095 -33.09765625 16.765625 C-33.07727985 12.17685893 -33.03813399 7.58879065 -33 3 C-24.09 3 -15.18 3 -6 3 C-6 4.32 -6 5.64 -6 7 C-11.61 7 -17.22 7 -23 7 C-22.67 17.56 -22.34 28.12 -22 39 C-14.74 39 -7.48 39 0 39 C0 34.38 0 29.76 0 25 C-3.96 25 -7.92 25 -12 25 C-12 23.35 -12 21.7 -12 20 C-8.04 20 -4.08 20 0 20 C0 13.4 0 6.8 0 0 Z " fill="#ED1E25" transform="translate(654,369)"/>
<path d="M0 0 C16.5 0 33 0 50 0 C50 4.95 50 9.9 50 15 C36.47 15 22.94 15 9 15 C9.33 16.65 9.66 18.3 10 20 C30.295 20.495 30.295 20.495 51 21 C51 22.65 51 24.3 51 26 C44.07 26 37.14 26 30 26 C30 27.98 30 29.96 30 32 C38.58 32 47.16 32 56 32 C56 33.32 56 34.64 56 36 C35.87 36 15.74 36 -5 36 C-5 34.68 -5 33.36 -5 32 C3.25 32 11.5 32 20 32 C20 30.02 20 28.04 20 26 C18.72382812 26.02320313 17.44765625 26.04640625 16.1328125 26.0703125 C14.4635475 26.08906829 12.7942762 26.10726869 11.125 26.125 C9.86236328 26.15013672 9.86236328 26.15013672 8.57421875 26.17578125 C7.36572266 26.18544922 7.36572266 26.18544922 6.1328125 26.1953125 C5.01737061 26.21102295 5.01737061 26.21102295 3.87939453 26.22705078 C2 26 2 26 0 24 C0 19.71 0 15.42 0 11 C13.2 11 26.4 11 40 11 C40 9.02 40 7.04 40 5 C26.8 5 13.6 5 0 5 C0 3.35 0 1.7 0 0 Z " fill="#ED242D" transform="translate(553,370)"/>
<path d="M0 0 C16.5 0 33 0 50 0 C50 1.32 50 2.64 50 4 C36.8 4 23.6 4 10 4 C10 11.59 10 19.18 10 27 C23.53 27 37.06 27 51 27 C51 28.65 51 30.3 51 32 C44.05829978 32.05058729 37.11664685 32.08568579 30.17480469 32.10986328 C27.81183089 32.11993924 25.44886961 32.13360029 23.0859375 32.15087891 C19.69528112 32.17505724 16.30478916 32.18646699 12.9140625 32.1953125 C11.85256989 32.20563507 10.79107727 32.21595764 9.69741821 32.22659302 C8.71655243 32.22674408 7.73568665 32.22689514 6.72509766 32.22705078 C5.42603989 32.23371262 5.42603989 32.23371262 4.10073853 32.24050903 C2 32 2 32 0 30 C-0.22705078 27.01904297 -0.22705078 27.01904297 -0.1953125 23.2421875 C-0.19031738 22.02901855 -0.18532227 20.81584961 -0.18017578 19.56591797 C-0.16196777 18.01791504 -0.14375977 16.46991211 -0.125 14.875 C-0.08375 9.96625 -0.0425 5.0575 0 0 Z " fill="#EE272F" transform="translate(767,372)"/>
<path d="M0 0 C3.3 0 6.6 0 10 0 C10 6.27 10 12.54 10 19 C13.3 19 16.6 19 20 19 C20 20.65 20 22.3 20 24 C16.7 24 13.4 24 10 24 C10 36.54 10 49.08 10 62 C6.7 62 3.4 62 0 62 C0 41.54 0 21.08 0 0 Z " fill="#ED2029" transform="translate(738,369)"/>
<path d="M0 0 C11.88 0 23.76 0 36 0 C34.88119991 11.18800094 32.69942641 21.28828139 24 29 C16.8782237 34.71200488 8.56132887 40.98064912 -1 40 C-1.33 38.68 -1.66 37.36 -2 36 C-1.0821875 35.5875 -0.164375 35.175 0.78125 34.75 C8.6636274 31.08530117 16.91110664 27.17778673 21 19 C14.07 19 7.14 19 0 19 C0 17.68 0 16.36 0 15 C7.92 15 15.84 15 24 15 C24.66 11.37 25.32 7.74 26 4 C17.42 4 8.84 4 0 4 C0 2.68 0 1.36 0 0 Z " fill="#ED2129" transform="translate(694,372)"/>
<path d="M0 0 C2.97 0 5.94 0 9 0 C9 20.46 9 40.92 9 62 C6.03 62 3.06 62 0 62 C0 41.54 0 21.08 0 0 Z " fill="#ED1C25" transform="translate(669,369)"/>
<path d="M0 0 C3.96 0 7.92 0 12 0 C12.680625 1.7634375 12.680625 1.7634375 13.375 3.5625 C16.40203877 9.62734991 21.99166661 13.40376104 28.20703125 15.87890625 C30.26702754 16.5100983 30.26702754 16.5100983 33 17 C32.67 18.32 32.34 19.64 32 21 C27.04024531 22.93815657 22.9437202 20.41660303 18.28515625 18.546875 C14.04092841 16.54840386 10.51324093 14.08868009 7 11 C4.57057536 12.21168311 2.145664 13.43175025 -0.27734375 14.65625 C-1.49737208 15.27088049 -2.71742476 15.88546263 -3.9375 16.5 C-4.54529297 16.80808594 -5.15308594 17.11617188 -5.77929688 17.43359375 C-14.8631136 22 -14.8631136 22 -20 22 C-20.66 20.68 -21.32 19.36 -22 18 C-21.28714844 17.69707031 -20.57429687 17.39414062 -19.83984375 17.08203125 C-10.1114274 12.82666743 -4.23281126 9.98943457 0 0 Z " fill="#ED252D" transform="translate(572,409)"/>
<path d="M0 0 C20.46 0 40.92 0 62 0 C62 1.65 62 3.3 62 5 C41.54 5 21.08 5 0 5 C0 3.35 0 1.7 0 0 Z " fill="#EE333A" transform="translate(761,418)"/>
<path d="M0 0 C2.5 0.25 2.5 0.25 4.5 2.25 C3.94444444 6.80555556 3.94444444 6.80555556 2.5 8.25 C0.50041636 8.29080783 -1.50045254 8.29254356 -3.5 8.25 C-4.125 5.375 -4.125 5.375 -4.5 2.25 C-2.5 0.25 -2.5 0.25 0 0 Z " fill="#FDEFEF" transform="translate(431.5,433.75)"/>
</svg>
