<?xml version="1.0" encoding="UTF-8"?>
<svg version="1.1" xmlns="http://www.w3.org/2000/svg" width="281" height="180">
<path d="M0 0 C92.73 0 185.46 0 281 0 C281 59.4 281 118.8 281 180 C188.27 180 95.54 180 0 180 C0 120.6 0 61.2 0 0 Z " fill="#FEFEFE" transform="translate(0,0)"/>
<path d="M0 0 C5.90300525 1.3415921 9.0794203 2.36913045 12.5 7.5 C14.01562125 10.02603541 15.06484141 12.19452423 16 15 C15.030625 15.70125 14.06125 16.4025 13.0625 17.125 C10.61335554 19.16884869 10.03289175 19.89926901 9 23.0625 C9 26.13096306 9.2317532 27.52445448 11 30 C14.51824511 32.34549674 15.85775694 32.57991403 20 32 C23.31669279 29.54853142 24.76080628 28.04375441 25.6875 24 C24.69218635 19.65681315 22.58619301 18.54022005 19 16 C19.54885474 11.47194839 21.07433723 7.5074707 24 4 C27.54378035 1.55650629 30.66814749 0 35 0 C35 2.64 35 5.28 35 8 C33.35 8.66 31.7 9.32 30 10 C30.3609375 10.6290625 30.721875 11.258125 31.09375 11.90625 C34.19672075 17.62950716 35.94501703 21.48988267 35 28 C33.17736323 33.29340252 30.79369492 36.92711864 26 40 C20.7460788 41.75130707 15.45975748 41.79192237 10 41 C4.83117743 38.20284754 1.76950259 34.59499866 0 29 C-0.99042589 22.02531666 -0.22810107 17.09395121 3.90625 11.36328125 C4.44765625 10.68845703 4.44765625 10.68845703 5 10 C3.35 9.67 1.7 9.34 0 9 C0 6.03 0 3.06 0 0 Z " fill="#FBB910" transform="translate(23,70)"/>
<path d="M0 0 C7.98998916 -0.78333227 7.98998916 -0.78333227 11.75 2.1328125 C12.4925 3.07898438 13.235 4.02515625 14 5 C14.825 5.94617188 15.65 6.89234375 16.5 7.8671875 C17.7375 9.35605469 17.7375 9.35605469 19 10.875 C20.2375 12.35613281 20.2375 12.35613281 21.5 13.8671875 C24.1210756 17.15172287 26.55753988 20.58055583 29 24 C29.33 16.08 29.66 8.16 30 0 C32.31 0 34.62 0 37 0 C37 11.22 37 22.44 37 34 C29.38994497 34 28.87155005 33.80874336 23.97216797 29.11621094 C20.73422841 25.64177913 17.86967697 21.95146919 15.0625 18.125 C13.92871951 16.60652132 12.7946224 15.08827898 11.66015625 13.5703125 C10.92744507 12.57668701 10.92744507 12.57668701 10.17993164 11.56298828 C9.08878181 10.04267826 9.08878181 10.04267826 8 9 C7.67 17.25 7.34 25.5 7 34 C5.02 34 3.04 34 1 34 C0 33 0 33 -0.11352539 29.85717773 C-0.11336633 28.46597303 -0.10767506 27.07476239 -0.09765625 25.68359375 C-0.0962413 24.95253922 -0.09482635 24.22148468 -0.09336853 23.46827698 C-0.08775408 21.12464368 -0.07519922 18.78110461 -0.0625 16.4375 C-0.05748686 14.85221492 -0.05292363 13.26692834 -0.04882812 11.68164062 C-0.03777997 7.7877239 -0.02050572 3.89387795 0 0 Z " fill="#0465B2" transform="translate(71,74)"/>
<path d="M0 0 C1.134375 0.020625 2.26875 0.04125 3.4375 0.0625 C3.4375 4.3525 3.4375 8.6425 3.4375 13.0625 C10.3675 13.0625 17.2975 13.0625 24.4375 13.0625 C24.4375 8.7725 24.4375 4.4825 24.4375 0.0625 C26.77044775 0.02008277 29.10452567 0.02157063 31.4375 0.0625 C33.11423649 1.73923649 32.56537817 3.79105076 32.57644653 6.02905273 C32.5744223 6.72071533 32.57239807 7.41237793 32.5703125 8.125 C32.57126923 8.83148682 32.57222595 9.53797363 32.57321167 10.26586914 C32.57389333 11.76220793 32.57204005 13.25854967 32.56787109 14.75488281 C32.56252257 17.05280157 32.56781651 19.35052486 32.57421875 21.6484375 C32.57355797 23.09895877 32.5722768 24.54947991 32.5703125 26 C32.57233673 26.6916626 32.57436096 27.3833252 32.57644653 28.09594727 C32.55245224 32.94754776 32.55245224 32.94754776 31.4375 34.0625 C29.4575 34.0625 27.4775 34.0625 25.4375 34.0625 C25.4375 29.1125 25.4375 24.1625 25.4375 19.0625 C18.1775 19.0625 10.9175 19.0625 3.4375 19.0625 C3.4375 24.0125 3.4375 28.9625 3.4375 34.0625 C1.1275 34.0625 -1.1825 34.0625 -3.5625 34.0625 C-5.04375044 31.09999913 -4.69240684 28.42337105 -4.6953125 25.12109375 C-4.69626923 24.43821793 -4.69722595 23.7553421 -4.69821167 23.05177307 C-4.69889223 21.60848905 -4.6970466 20.16520197 -4.69287109 18.72192383 C-4.68751282 16.50530172 -4.69282443 14.28888148 -4.69921875 12.07226562 C-4.69855811 10.67187455 -4.69727723 9.2714836 -4.6953125 7.87109375 C-4.69418457 6.59032959 -4.69305664 5.30956543 -4.69189453 3.98999023 C-4.50281094 -0.28793673 -4.39897951 0.07717508 0 0 Z " fill="#116DB6" transform="translate(119.5625,73.9375)"/>
<path d="M0 0 C1.98 0 3.96 0 6 0 C6 10.89 6 21.78 6 33 C3.525 33.495 3.525 33.495 1 34 C0.67 33.34 0.34 32.68 0 32 C-0.495 32.33 -0.99 32.66 -1.5 33 C-5.0053353 34.40213412 -8.30936444 34.60778324 -12 34 C-15.44312714 31.8755173 -16.71617547 30.85147359 -18 27 C-18.39724804 22.064957 -18.65675597 17.53243061 -16.6875 12.9375 C-15 11 -15 11 -12 9 C-9.84375 8.98828125 -9.84375 8.98828125 -7.5 9.3125 C-6.7265625 9.41175781 -5.953125 9.51101562 -5.15625 9.61328125 C-3 10 -3 10 0 11 C0 7.37 0 3.74 0 0 Z " fill="#0B69B4" transform="translate(252,73)"/>
<path d="M0 0 C2.71411461 1.55092264 3.66260244 2.48963304 5.1875 5.25 C5.57983908 8.32038185 5.51517349 11.34755136 5.4375 14.4375 C5.43234375 15.26958984 5.4271875 16.10167969 5.421875 16.95898438 C5.34185332 23.09564668 5.34185332 23.09564668 4.1875 24.25 C1.58968031 24.40420847 -0.96325286 24.48169544 -3.5625 24.5 C-4.27921875 24.520625 -4.9959375 24.54125 -5.734375 24.5625 C-10.2721195 24.59586577 -13.27826924 24.17836263 -16.8125 21.25 C-17.875 17.8125 -17.875 17.8125 -17.8125 14.25 C-15.64196501 11.30427395 -14.29067177 10.40939059 -10.8125 9.25 C-9.08454648 9.18197033 -7.35414635 9.16504355 -5.625 9.1875 C-4.72394531 9.19652344 -3.82289063 9.20554687 -2.89453125 9.21484375 C-2.20746094 9.22644531 -1.52039063 9.23804687 -0.8125 9.25 C-1.4725 7.27 -2.1325 5.29 -2.8125 3.25 C-6.7725 3.25 -10.7325 3.25 -14.8125 3.25 C-14.4825 2.26 -14.1525 1.27 -13.8125 0.25 C-9.15286597 -1.30321134 -4.69869085 -1.25298423 0 0 Z " fill="#156FB7" transform="translate(206.8125,82.75)"/>
<path d="M0 0 C1.98 0.66 3.96 1.32 6 2 C9.10615338 1.7602129 9.10615338 1.7602129 12 1 C12.78375 0.814375 13.5675 0.62875 14.375 0.4375 C14.91125 0.293125 15.4475 0.14875 16 0 C15.67 1.32 15.34 2.64 15 4 C15.66 4.33 16.32 4.66 17 5 C16.32517578 5.59748047 16.32517578 5.59748047 15.63671875 6.20703125 C13.77001716 8.25193824 12.88250531 10.14162531 11.8125 12.6875 C11.46832031 13.49574219 11.12414063 14.30398437 10.76953125 15.13671875 C10.51558594 15.75160156 10.26164062 16.36648437 10 17 C10.62390625 17.30421875 11.2478125 17.6084375 11.890625 17.921875 C14.18645387 19.09529865 15.49779692 19.89691569 17 22 C17.59391744 25.90288606 17.33267605 27.50098592 15.125 30.8125 C12.62980912 33.38107884 11.71830363 33.90422618 8.1875 34.375 C5 34 5 34 2.1875 31.875 C-0.2824743 28.62874807 -1.16653634 27.08014042 -1 23 C1.12669689 20.0111287 3.4154181 17.5845819 6 15 C4.02 10.05 2.04 5.1 0 0 Z " fill="#FEF9EF" transform="translate(32,69)"/>
<path d="M0 0 C2.3671875 1.0234375 2.3671875 1.0234375 4 2 C4 2.66 4 3.32 4 4 C3.19175781 3.89300781 2.38351563 3.78601563 1.55078125 3.67578125 C0.48214844 3.55589844 -0.58648437 3.43601562 -1.6875 3.3125 C-2.74324219 3.18488281 -3.79898438 3.05726562 -4.88671875 2.92578125 C-8.55536709 3.01323962 -10.14346261 3.73378032 -13 6 C-16.4449874 10.78122493 -15.58207163 17.41488417 -15 23 C-13.74975473 26.24356083 -12.18327822 28.40836089 -9 30 C-4.52326748 30.17218202 -0.39401026 29.85736786 4 29 C3.67 29.99 3.34 30.98 3 32 C-3.07976974 34.02658991 -9.8075567 34.07698969 -15.5625 31.25 C-19.6022053 27.52104126 -21.76897922 24.43700843 -23 19 C-23.10812868 12.97723227 -22.01093091 8.66135214 -18 4 C-12.76107551 -0.97697826 -6.86007236 -0.82167998 0 0 Z " fill="#0966B3" transform="translate(183,74)"/>
<path d="M0 0 C2.875 0.3125 2.875 0.3125 6 1 C8.21477492 4.32216238 8.29667707 5.55033323 8.3125 9.4375 C8.33763672 10.85869141 8.33763672 10.85869141 8.36328125 12.30859375 C7.94283016 15.42354859 7.19650605 16.77777374 5 19 C2 19.5625 2 19.5625 -1 19 C-3.78696564 16.12013551 -4.23711318 13.3719905 -4.4375 9.5 C-4.31606564 5.22122478 -3.12367637 3.02606148 0 0 Z " fill="#F7FAFC" transform="translate(244,85)"/>
<path d="M0 0 C0 1.65 0 3.3 0 5 C-3.465 6.485 -3.465 6.485 -7 8 C-7.33 13.61 -7.66 19.22 -8 25 C-9.65 25 -11.3 25 -13 25 C-14 24 -14 24 -14.11352539 21.86694336 C-14.10828857 20.95050049 -14.10305176 20.03405762 -14.09765625 19.08984375 C-14.09443359 18.10048828 -14.09121094 17.11113281 -14.08789062 16.09179688 C-14.07951172 15.05087891 -14.07113281 14.00996094 -14.0625 12.9375 C-14.05798828 11.89271484 -14.05347656 10.84792969 -14.04882812 9.77148438 C-14.03699913 7.1809334 -14.02051689 4.59049441 -14 2 C-12.35 1.67 -10.7 1.34 -9 1 C-8.67 1.66 -8.34 2.32 -8 3 C-7.4225 2.505 -6.845 2.01 -6.25 1.5 C-4 0 -4 0 0 0 Z " fill="#0966B3" transform="translate(231,82)"/>
<path d="M0 0 C1.98 0.66 3.96 1.32 6 2 C9.10615338 1.7602129 9.10615338 1.7602129 12 1 C12.78375 0.814375 13.5675 0.62875 14.375 0.4375 C15.179375 0.2209375 15.179375 0.2209375 16 0 C14.23570801 4.97209562 11.6060834 9.43438061 9 14 C8.34 14 7.68 14 7 14 C4.69 9.38 2.38 4.76 0 0 Z " fill="#FBB90F" transform="translate(32,69)"/>
<path d="M0 0 C1.17046875 0.03609375 2.3409375 0.0721875 3.546875 0.109375 C4.43890625 0.15578125 5.3309375 0.2021875 6.25 0.25 C6.25 0.58 6.25 0.91 6.25 1.25 C3.28 1.91 0.31 2.57 -2.75 3.25 C-3.75217064 6.83327753 -3.75217064 6.83327753 -2.75 10.25 C-0.86235097 10.93472665 -0.86235097 10.93472665 1.3125 11.375 C2.41271484 11.62636719 2.41271484 11.62636719 3.53515625 11.8828125 C4.10105469 12.00398438 4.66695312 12.12515625 5.25 12.25 C5.25 12.58 5.25 12.91 5.25 13.25 C3.33458862 13.35841951 1.41740227 13.43578079 -0.5 13.5 C-2.10101563 13.56960937 -2.10101563 13.56960937 -3.734375 13.640625 C-6.75 13.25 -6.75 13.25 -9.109375 11.390625 C-10.75 9.25 -10.75 9.25 -11.25 6.75 C-9.99132739 0.45663694 -5.74059185 -0.22962367 0 0 Z " fill="#0B67B4" transform="translate(199.75,92.75)"/>
<path d="M0 0 C3.46679688 0.04882812 3.46679688 0.04882812 6.93359375 0.09765625 C6.93359375 3.06765625 6.93359375 6.03765625 6.93359375 9.09765625 C0.09765625 9.390625 0.09765625 9.390625 -2.06640625 9.09765625 C-4.06640625 6.09765625 -4.06640625 6.09765625 -3.75390625 3.47265625 C-2.78678755 0.13170073 -2.78678755 0.13170073 0 0 Z " fill="#F5F8FB" transform="translate(199.06640625,94.90234375)"/>
<path d="M0 0 C2.31 0 4.62 0 7 0 C7 0.66 7 1.32 7 2 C4.36 2.33 1.72 2.66 -1 3 C-0.67 2.01 -0.34 1.02 0 0 Z " fill="#1066B3" transform="translate(193,83)"/>
</svg>
